<svg width="12" height="12" viewBox="0 0 12 12" fill="none" xmlns="http://www.w3.org/2000/svg">
<g clip-path="url(#clip0_335_3190)">
<path d="M6.04692 11.9991H5.95217C4.12602 11.9991 2.76201 11.6042 1.78203 10.792C0.599554 9.81205 0 8.21516 0 6.04692V5.95218C0 1.94693 1.94693 0 5.95217 0H6.04692C7.88392 0 9.24721 0.385482 10.2149 1.17886C11.4154 2.16318 11.9991 3.72463 11.9991 5.9529V6.04764C11.9991 10.0529 10.0522 11.9998 6.04692 11.9998V11.9991ZM5.9529 1.12028C2.56602 1.12028 1.12028 2.56529 1.12028 5.9529V6.04764C1.12028 7.8926 1.57085 9.16259 2.49731 9.93066C3.26827 10.5693 4.39868 10.8803 5.9529 10.8803H6.04764C9.43452 10.8803 10.8803 9.43525 10.8803 6.04764V5.9529C10.8803 4.0819 10.4304 2.80324 9.50612 2.04529C8.74673 1.42331 7.6156 1.12028 6.04836 1.12028H5.95362H5.9529Z" fill="#BBBBBB"/>
<path d="M7.16493 6.26926C7.31642 5.62744 6.91892 4.98434 6.2771 4.83285C5.63528 4.68137 4.99218 5.07887 4.84069 5.72069C4.68921 6.36251 5.08671 7.00561 5.72853 7.1571C6.37035 7.30858 7.01345 6.91108 7.16493 6.26926Z" fill="white"/>
<path d="M6.00578 7.75376C5.03883 7.75376 4.25195 6.96688 4.25195 5.99992C4.25195 5.03297 5.03883 4.24609 6.00578 4.24609C6.97274 4.24609 7.75961 5.03297 7.75961 5.99992C7.75961 6.96688 6.97274 7.75376 6.00578 7.75376ZM6.00578 5.36565C5.65646 5.36565 5.37151 5.64988 5.37151 5.99992C5.37151 6.34997 5.65574 6.6342 6.00578 6.6342C6.35583 6.6342 6.64006 6.34997 6.64006 5.99992C6.64006 5.64988 6.35583 5.36565 6.00578 5.36565Z" fill="#BBBBBB"/>
<path d="M6.08615 5.36444C5.77661 5.36444 5.52637 5.11348 5.52637 4.80466V2.44259C5.52637 2.13305 5.77733 1.88281 6.08615 1.88281C6.39497 1.88281 6.64593 2.13377 6.64593 2.44259V4.80466C6.64593 5.1142 6.39497 5.36444 6.08615 5.36444Z" fill="#BBBBBB"/>
<path d="M8.16363 8.73611C8.02044 8.73611 7.87724 8.68114 7.76731 8.57193L6.44018 7.24481C6.22176 7.0264 6.22176 6.67129 6.44018 6.45287C6.65859 6.23446 7.0137 6.23446 7.23212 6.45287L8.55924 7.78C8.77766 7.99841 8.77766 8.35352 8.55924 8.57193C8.45004 8.68114 8.30683 8.73611 8.16291 8.73611H8.16363Z" fill="#BBBBBB"/>
</g>
<defs>
<clipPath id="clip0_335_3190">
<rect width="11.9991" height="11.9998" fill="white"/>
</clipPath>
</defs>
</svg>
