<svg width="14" height="14" viewBox="0 0 14 14" fill="none" xmlns="http://www.w3.org/2000/svg">
<path d="M13.4092 3.18031C13.3928 3.07706 13.2272 2.14956 12.5552 1.47231C11.8803 0.811981 10.9493 0.648648 10.8454 0.632314C10.7072 0.609564 10.566 0.638731 10.4476 0.712231C10.4062 0.737898 9.79776 1.11881 8.59668 2.1344C9.21443 2.35256 10.013 2.73115 10.6605 3.36465C11.3103 4.00048 11.6988 4.78273 11.9217 5.3894C12.925 4.2169 13.3024 3.62306 13.3275 3.58223C13.4022 3.46265 13.4313 3.31973 13.4092 3.18031Z" fill="white"/>
<path d="M7.55435 3.04663C6.92843 3.6113 6.19985 4.2973 5.36568 5.12563C1.82893 8.6373 0.901435 10.0414 0.863518 10.0991C0.810435 10.1808 0.778351 10.2747 0.770768 10.3715L0.584685 12.7463C0.571851 12.9166 0.633101 13.0835 0.753851 13.2042C0.863518 13.3139 1.01227 13.3751 1.16685 13.3751C1.18143 13.3751 1.1966 13.3751 1.21177 13.3734L3.60402 13.189C3.70027 13.1815 3.79302 13.1505 3.8741 13.0986C3.93243 13.0613 5.34585 12.1402 8.88202 8.62913C9.73485 7.78213 10.4384 7.0448 11.0141 6.41421C10.926 6.03563 10.6186 4.9553 9.84452 4.19871C9.05935 3.43046 7.93002 3.12946 7.55435 3.04663Z" fill="white"/>
</svg>
