<svg width="20" height="20" viewBox="0 0 20 20" fill="none" xmlns="http://www.w3.org/2000/svg">
<g clip-path="url(#clip0_243_7767)">
<path d="M10 8.33516C10.9167 8.33516 11.6667 9.08516 11.6667 10.0018C11.6667 10.9185 10.9167 11.6685 10 11.6685C9.08337 11.6685 8.33337 10.9185 8.33337 10.0018C8.33337 9.08516 9.08337 8.33516 10 8.33516ZM17.075 17.0768C20.975 13.1768 20.975 6.83516 17.075 2.93516C16.75 2.61016 16.225 2.61016 15.9 2.93516C15.575 3.26016 15.575 3.78516 15.9 4.11016C19.15 7.36016 19.15 12.6435 15.9 15.8935C15.575 16.2185 15.575 16.7435 15.9 17.0685C16.0667 17.2352 16.275 17.3102 16.4917 17.3102C16.7084 17.3102 16.9167 17.2268 17.0834 17.0685L17.075 17.0768ZM14.125 14.1268C15.225 13.0268 15.8334 11.5602 15.8334 10.0018C15.8334 8.44349 15.225 6.97682 14.125 5.87682C13.8 5.55182 13.275 5.55182 12.95 5.87682C12.625 6.20182 12.625 6.72682 12.95 7.05182C13.7334 7.83516 14.1667 8.88516 14.1667 10.0018C14.1667 11.1185 13.7334 12.1602 12.95 12.9518C12.625 13.2768 12.625 13.8018 12.95 14.1268C13.1167 14.2935 13.325 14.3685 13.5417 14.3685C13.7584 14.3685 13.9667 14.2852 14.1334 14.1268H14.125ZM4.10837 17.0768C4.43337 16.7518 4.43337 16.2268 4.10837 15.9018C0.858366 12.6518 0.858366 7.36849 4.10837 4.11849C4.43337 3.79349 4.43337 3.26849 4.10837 2.94349C3.78337 2.61849 3.25837 2.61849 2.93337 2.94349C-0.966633 6.82682 -0.966633 13.1768 2.92503 17.0768C3.0917 17.2435 3.30003 17.3185 3.5167 17.3185C3.73337 17.3185 3.9417 17.2352 4.10837 17.0768ZM7.05837 14.1268C7.38337 13.8018 7.38337 13.2768 7.05837 12.9518C5.43337 11.3268 5.43337 8.68516 7.05837 7.06016C7.38337 6.73516 7.38337 6.21016 7.05837 5.88516C6.73337 5.56016 6.20837 5.56016 5.88337 5.88516C3.60837 8.16016 3.60837 11.8602 5.88337 14.1352C6.05003 14.3018 6.25837 14.3768 6.47503 14.3768C6.6917 14.3768 6.90003 14.2935 7.0667 14.1352L7.05837 14.1268Z" fill="white"/>
</g>
<defs>
<clipPath id="clip0_243_7767">
<rect width="20" height="20" fill="white"/>
</clipPath>
</defs>
</svg>
