<svg width="28" height="28" viewBox="0 0 28 28" fill="none" xmlns="http://www.w3.org/2000/svg">
<g clip-path="url(#clip0_119_25299)">
<rect width="28" height="28" rx="14" fill="#F8F5FF"/>
<path d="M14.016 17.5007C17.2376 17.5007 19.8493 14.889 19.8493 11.6673C19.8493 8.44566 17.2376 5.83398 14.016 5.83398C10.7943 5.83398 8.18262 8.44566 8.18262 11.6673C8.18262 14.889 10.7943 17.5007 14.016 17.5007Z" fill="white"/>
<path d="M14.0156 20.416C8.17064 20.416 3.41064 24.336 3.41064 29.166C3.41064 29.4927 3.66731 29.7493 3.99398 29.7493H24.0373C24.364 29.7493 24.6206 29.4927 24.6206 29.166C24.6206 24.336 19.8606 20.416 14.0156 20.416Z" fill="white"/>
</g>
<defs>
<clipPath id="clip0_119_25299">
<rect width="28" height="28" rx="14" fill="white"/>
</clipPath>
</defs>
</svg>
