<svg width="18" height="18" viewBox="0 0 18 18" fill="none" xmlns="http://www.w3.org/2000/svg">
<g clip-path="url(#clip0_2732_49640)">
<path d="M17.4411 12.1531L15.4911 5.12481C15.0747 3.62137 14.1674 2.30042 12.9136 1.37217C11.6598 0.443933 10.1315 -0.0382482 8.57199 0.00237152C7.01248 0.0429913 5.51137 0.604078 4.30757 1.59633C3.10377 2.58859 2.26645 3.95498 1.92888 5.47806L0.420635 12.2656C0.347654 12.5944 0.349434 12.9354 0.425844 13.2635C0.502253 13.5915 0.651342 13.8982 0.862111 14.161C1.07288 14.4237 1.33995 14.6358 1.64362 14.7815C1.94729 14.9273 2.2798 15.003 2.61663 15.0031H5.32188C5.49402 15.8508 5.95393 16.6129 6.62369 17.1603C7.29345 17.7078 8.13187 18.0068 8.99688 18.0068C9.8619 18.0068 10.7003 17.7078 11.3701 17.1603C12.0398 16.6129 12.4997 15.8508 12.6719 15.0031H15.2744C15.621 15.0029 15.9628 14.9227 16.2733 14.7687C16.5838 14.6146 16.8545 14.391 17.0643 14.1151C17.2741 13.8392 17.4173 13.5186 17.4828 13.1783C17.5483 12.838 17.5336 12.4871 17.4411 12.1531ZM8.99688 16.5031C8.53319 16.5011 8.08141 16.356 7.70336 16.0875C7.32531 15.819 7.03945 15.4402 6.88488 15.0031H11.1089C10.9543 15.4402 10.6685 15.819 10.2904 16.0875C9.91236 16.356 9.46058 16.5011 8.99688 16.5031ZM15.8706 13.2068C15.8007 13.2996 15.71 13.3747 15.6058 13.4261C15.5016 13.4776 15.3868 13.5039 15.2706 13.5031H2.61663C2.50433 13.503 2.39346 13.4778 2.29222 13.4292C2.19097 13.3806 2.10194 13.3099 2.03167 13.2223C1.96141 13.1347 1.91172 13.0324 1.88628 12.923C1.86083 12.8136 1.86026 12.6999 1.88463 12.5903L3.39288 5.80281C3.65865 4.60746 4.31637 3.53526 5.26148 2.75665C6.20659 1.97803 7.38485 1.53769 8.60896 1.50562C9.83308 1.47355 11.0328 1.8516 12.0174 2.57966C13.0019 3.30772 13.7149 4.34402 14.0429 5.52381L15.9929 12.5521C16.0247 12.6632 16.0303 12.7802 16.009 12.8939C15.9878 13.0075 15.9404 13.1147 15.8706 13.2068Z" fill="black"/>
</g>
<defs>
<clipPath id="clip0_2732_49640">
<rect width="18" height="18" fill="white"/>
</clipPath>
</defs>
</svg>
