<svg width="200" height="200" viewBox="0 0 200 200" fill="none" xmlns="http://www.w3.org/2000/svg">
<rect width="200" height="200" rx="100" fill="#F2F2F7"/>
<path d="M148.216 92.575L139.327 77.7351L99.9697 90.8797L60.6125 77.7351L51.8025 92.4372C49.823 95.74 49.4562 99.7068 50.7898 103.319C52.0817 106.822 54.8031 109.532 58.2954 110.805V135.583L99.9697 149.5L141.644 135.583V110.81C145.17 109.574 147.924 106.859 149.22 103.344C150.537 99.7694 150.175 95.8402 148.216 92.5708V92.575ZM58.9497 96.738L64.3131 87.7773L93.7227 97.6023L87.334 108.271C86.3214 109.966 84.296 110.705 82.4415 110.087L61.2667 103.018C60.029 102.6 59.0622 101.661 58.6079 100.438C58.1537 99.2099 58.2787 97.8654 58.9497 96.7463V96.738ZM66.6302 113.599L79.8035 118C81.1246 118.442 82.479 118.655 83.8042 118.655C88.0925 118.655 92.1599 116.438 94.4812 112.563L95.8023 110.354V139.316L66.6302 129.57V113.599ZM104.137 139.316V110.354L105.458 112.563C107.779 116.438 111.847 118.655 116.135 118.655C117.46 118.655 118.811 118.442 120.136 118L133.309 113.603V129.574L104.137 139.32V139.316ZM141.402 100.454C140.965 101.644 140.023 102.559 138.823 102.964L117.498 110.083C115.623 110.697 113.618 109.966 112.605 108.267L106.217 97.5981L135.626 87.7731L141.073 96.8716C141.723 97.9572 141.848 99.26 141.407 100.45L141.402 100.454Z" fill="#555555"/>
<path d="M91 55.5L109 73.5" stroke="#555555" stroke-width="6" stroke-linecap="round" stroke-linejoin="round"/>
<path d="M109 55.5L91 73.5" stroke="#555555" stroke-width="6" stroke-linecap="round" stroke-linejoin="round"/>
</svg>
