<svg width="18" height="18" viewBox="0 0 18 18" fill="none" xmlns="http://www.w3.org/2000/svg">
<g clip-path="url(#clip0_31_12529)">
<path d="M17.0767 7.008L15.75 5.7375V2.25C15.75 1.0095 14.7405 0 13.5 0H4.5C3.2595 0 2.25 1.0095 2.25 2.25V5.739L0.92475 7.008C0.33825 7.5705 0.0015 8.3595 0.0015 9.17325L0 18H18V9.17325C18 8.358 17.6632 7.569 17.0767 7.008ZM4.5 1.5H13.5C13.914 1.5 14.25 1.836 14.25 2.25V9.1815L10.5907 12.8407C9.741 13.6905 8.259 13.6905 7.40925 12.8407L3.75 9.1815V2.25C3.75 1.836 4.086 1.5 4.5 1.5ZM16.5 16.5H1.5C1.5 16.5 1.497 9.10125 1.5 9.06525L6.34875 13.9012C7.056 14.6093 7.998 15 9 15C10.002 15 10.944 14.6093 11.6512 13.9012L16.5 9.06375C16.503 9.1005 16.5 16.5 16.5 16.5ZM7.1895 8.5605L5.103 6.5385L6.14775 5.4615L8.2425 7.49175L11.8507 3.9645L12.9008 5.0355L9.306 8.56575C9.0165 8.85525 8.63475 9 8.25225 9C7.86975 9 7.48275 8.85375 7.1895 8.5605Z" fill="white"/>
</g>
<defs>
<clipPath id="clip0_31_12529">
<rect width="18" height="18" fill="white"/>
</clipPath>
</defs>
</svg>
