<svg width="20" height="20" viewBox="0 0 20 20" fill="none" xmlns="http://www.w3.org/2000/svg">
<g clip-path="url(#clip0_119_25178)">
<path d="M10 17.5C10 17.9608 9.62667 18.3333 9.16667 18.3333H4.16667C1.86917 18.3333 0 16.4642 0 14.1667V4.16667C0 1.86917 1.86917 0 4.16667 0H14.1667C16.4642 0 18.3333 1.86917 18.3333 4.16667V9.16667C18.3333 9.6275 17.96 10 17.5 10C17.04 10 16.6667 9.6275 16.6667 9.16667V4.16667C16.6667 2.78833 15.545 1.66667 14.1667 1.66667H4.16667C2.78833 1.66667 1.66667 2.78833 1.66667 4.16667V9.96583L4.00667 7.62583C5.28333 6.34833 7.36083 6.34833 8.63833 7.62583L13.0892 12.0767C13.415 12.4025 13.415 12.9292 13.0892 13.255C12.9267 13.4175 12.7133 13.4992 12.5 13.4992C12.2867 13.4992 12.0733 13.4175 11.9108 13.255L7.46 8.80417C6.83333 8.17833 5.81333 8.1775 5.185 8.80417L1.66667 12.3225V14.1667C1.66667 15.545 2.78833 16.6667 4.16667 16.6667H9.16667C9.62667 16.6667 10 17.0392 10 17.5ZM12.5 2.91667C13.8783 2.91667 15 4.03833 15 5.41667C15 6.795 13.8783 7.91667 12.5 7.91667C11.1217 7.91667 10 6.795 10 5.41667C10 4.03833 11.1217 2.91667 12.5 2.91667ZM12.5 4.58333C12.0408 4.58333 11.6667 4.95667 11.6667 5.41667C11.6667 5.87667 12.0408 6.25 12.5 6.25C12.9592 6.25 13.3333 5.87667 13.3333 5.41667C13.3333 4.95667 12.9592 4.58333 12.5 4.58333ZM19.1667 15H16.6667V12.5C16.6667 12.0392 16.2933 11.6667 15.8333 11.6667C15.3733 11.6667 15 12.0392 15 12.5V15H12.5C12.04 15 11.6667 15.3725 11.6667 15.8333C11.6667 16.2942 12.04 16.6667 12.5 16.6667H15V19.1667C15 19.6275 15.3733 20 15.8333 20C16.2933 20 16.6667 19.6275 16.6667 19.1667V16.6667H19.1667C19.6267 16.6667 20 16.2942 20 15.8333C20 15.3725 19.6267 15 19.1667 15Z" fill="#888888"/>
</g>
<defs>
<clipPath id="clip0_119_25178">
<rect width="20" height="20" fill="white"/>
</clipPath>
</defs>
</svg>
