<svg width="80" height="80" viewBox="0 0 80 80" fill="none" xmlns="http://www.w3.org/2000/svg">
<path d="M36.6667 36.6667C36.6667 38.5067 35.1734 40 33.3334 40H20.0001C18.1601 40 16.6667 38.5067 16.6667 36.6667C16.6667 34.8267 18.1601 33.3333 20.0001 33.3333H33.3334C35.1734 33.3333 36.6667 34.8267 36.6667 36.6667ZM20.0001 20C18.1601 20 16.6667 21.4933 16.6667 23.3333C16.6667 25.1733 18.1601 26.6667 20.0001 26.6667H46.6667C48.5067 26.6667 50.0001 25.1733 50.0001 23.3333C50.0001 21.4933 48.5067 20 46.6667 20H20.0001ZM30.1601 69.92C22.7867 69.5633 15.7834 68.0767 12.4901 67.2867C11.7001 63.03 10.0001 52.4067 10.0001 39.9967C10.0001 27.5867 11.7001 16.9667 12.4901 12.7067C16.2501 11.8033 24.8567 9.99666 33.3334 9.99666C41.8101 9.99666 50.4167 11.8067 54.1768 12.7067C54.6701 15.36 55.5167 20.4867 56.0834 26.95C56.2434 28.7833 57.8601 30.1533 59.6934 29.98C61.5268 29.82 62.8867 28.2033 62.7234 26.37C61.8501 16.3567 60.3534 9.55666 60.2901 9.26999C60.0234 8.07333 59.1201 7.11666 57.9367 6.78333C57.4367 6.64333 45.5034 3.32666 33.3301 3.32666C21.1567 3.32666 9.23008 6.64999 8.72675 6.78999C7.54341 7.12333 6.64008 8.07999 6.37341 9.27666C6.24674 9.83333 3.33008 23.16 3.33008 40C3.33008 56.84 6.24674 70.1633 6.37341 70.7233C6.64008 71.92 7.54341 72.8767 8.72675 73.21C9.14008 73.3267 18.9434 76.0533 29.8367 76.58C31.6567 76.6733 33.2434 75.2533 33.3267 73.41C33.4134 71.57 31.9967 70.0067 30.1567 69.92H30.1601ZM26.6667 53.3333C28.5067 53.3333 30.0001 51.84 30.0001 50C30.0001 48.16 28.5067 46.6667 26.6667 46.6667H20.0001C18.1601 46.6667 16.6667 48.16 16.6667 50C16.6667 51.84 18.1601 53.3333 20.0001 53.3333H26.6667ZM76.6667 56.6667C76.6667 70.4967 70.4967 76.6667 56.6667 76.6667C42.8367 76.6667 36.6667 70.4967 36.6667 56.6667C36.6667 42.8367 42.8367 36.6667 56.6667 36.6667C70.4967 36.6667 76.6667 42.8367 76.6667 56.6667ZM70.0001 56.6667C70.0001 46.5733 66.7601 43.3333 56.6667 43.3333C46.5734 43.3333 43.3334 46.5733 43.3334 56.6667C43.3334 66.76 46.5734 70 56.6667 70C66.7601 70 70.0001 66.76 70.0001 56.6667Z" fill="#555555"/>
<path d="M52 52L62 62" stroke="#555555" stroke-width="4" stroke-linecap="round" stroke-linejoin="round"/>
<path d="M62 52L52 62" stroke="#555555" stroke-width="4" stroke-linecap="round" stroke-linejoin="round"/>
</svg>
