<svg width="14" height="14" viewBox="0 0 14 14" fill="none" xmlns="http://www.w3.org/2000/svg">
<path d="M6.10189 0.434056C6.49909 -0.145516 7.35442 -0.145517 7.75163 0.434056L9.5471 3.05386C9.67713 3.24359 9.86859 3.3827 10.0892 3.44773L13.1356 4.34576C13.8096 4.54443 14.0739 5.3579 13.6454 5.91476L11.7087 8.43192C11.5684 8.61421 11.4953 8.83929 11.5016 9.06922L11.5889 12.244C11.6082 12.9464 10.9163 13.4491 10.2543 13.2137L7.26181 12.1496C7.04509 12.0725 6.80843 12.0725 6.59171 12.1496L3.59926 13.2137C2.93725 13.4491 2.24527 12.9464 2.26459 12.244L2.35191 9.06922C2.35823 8.83929 2.2851 8.61421 2.14484 8.43192L0.208086 5.91476C-0.220376 5.3579 0.0439342 4.54443 0.717884 4.34576L3.7643 3.44773C3.98492 3.3827 4.17639 3.24359 4.30642 3.05386L6.10189 0.434056Z" fill="#FFCC00"/>
</svg>
