<svg width="19" height="19" viewBox="0 0 19 19" fill="none" xmlns="http://www.w3.org/2000/svg">
<g clip-path="url(#clip0_14_3768)">
<path d="M13.8446 2.34375L12.7407 0.9125C12.5208 0.629536 12.2394 0.400325 11.9178 0.24223C11.5962 0.084134 11.2428 0.00129925 10.8844 0L7.86567 0C7.50731 0.00129925 7.15395 0.084134 6.83234 0.24223C6.51073 0.400325 6.22932 0.629536 6.00942 0.9125L4.90552 2.34375H13.8446Z" fill="white"/>
<path d="M9.375 14.0625C11.1009 14.0625 12.5 12.6634 12.5 10.9375C12.5 9.21161 11.1009 7.8125 9.375 7.8125C7.64911 7.8125 6.25 9.21161 6.25 10.9375C6.25 12.6634 7.64911 14.0625 9.375 14.0625Z" fill="white"/>
<path d="M14.8438 3.90625H3.90625C2.87063 3.90749 1.87778 4.31944 1.14548 5.05173C0.413189 5.78403 0.00124051 6.77688 0 7.8125L0 14.8438C0.00124051 15.8794 0.413189 16.8722 1.14548 17.6045C1.87778 18.3368 2.87063 18.7488 3.90625 18.75H14.8438C15.8794 18.7488 16.8722 18.3368 17.6045 17.6045C18.3368 16.8722 18.7488 15.8794 18.75 14.8438V7.8125C18.7488 6.77688 18.3368 5.78403 17.6045 5.05173C16.8722 4.31944 15.8794 3.90749 14.8438 3.90625ZM9.375 15.625C8.4479 15.625 7.54162 15.3501 6.77076 14.835C5.99991 14.3199 5.3991 13.5879 5.04431 12.7313C4.68953 11.8748 4.5967 10.9323 4.77757 10.023C4.95844 9.11373 5.40488 8.2785 6.06044 7.62294C6.716 6.96738 7.55123 6.52094 8.46051 6.34007C9.3698 6.1592 10.3123 6.25203 11.1688 6.60682C12.0254 6.9616 12.7574 7.56241 13.2725 8.33326C13.7876 9.10412 14.0625 10.0104 14.0625 10.9375C14.0613 12.1803 13.567 13.3719 12.6882 14.2507C11.8094 15.1295 10.6178 15.6238 9.375 15.625Z" fill="white"/>
</g>
<defs>
<clipPath id="clip0_14_3768">
<rect width="18.75" height="18.75" fill="white"/>
</clipPath>
</defs>
</svg>
