<svg width="18" height="18" viewBox="0 0 18 18" fill="none" xmlns="http://www.w3.org/2000/svg">
<g clip-path="url(#clip0_243_12156)">
<path d="M13.3845 10.6628L10.0898 9.24375C9.387 8.9415 8.58075 8.9415 7.87875 9.24525L4.605 10.6628C4.06275 10.8975 3.726 11.4105 3.72525 12.0007C3.7245 12.591 4.0605 13.1047 4.60125 13.341L6 13.9515V15.8955C6 16.626 6.4275 17.295 7.0905 17.6003C7.66725 17.8657 8.30925 18 9 18C9.69075 18 10.3328 17.865 10.911 17.6003C11.5725 17.295 12 16.6252 12 15.8955V13.9455L12.75 13.62V15.7507C12.75 16.1655 13.0852 16.5007 13.5 16.5007C13.9148 16.5007 14.25 16.1655 14.25 15.7507C14.25 15.7507 14.25 12.0405 14.25 12.0007C14.25 11.418 13.9193 10.8923 13.3845 10.6635V10.6628ZM8.475 10.6222C8.799 10.4812 9.1725 10.4812 9.4965 10.6208L12.759 11.9535C12.759 11.964 12.7537 11.9722 12.753 11.9827L9.50175 13.395C9.17475 13.5368 8.79975 13.5367 8.47275 13.3935L5.2005 12.0397L8.47425 10.6222H8.475ZM10.5 15.8948C10.5 16.044 10.4167 16.176 10.2833 16.2375C9.52575 16.5847 8.4735 16.5847 7.7175 16.2375C7.58325 16.176 7.5 16.044 7.5 15.8948V14.6055L7.8735 14.7682C8.22825 14.9227 8.6085 15 8.9895 15C9.36825 15 9.747 14.9235 10.1003 14.7698L10.5 14.5958V15.8948ZM5.25 3.375C5.25 3.996 4.746 4.5 4.125 4.5C3.504 4.5 3 3.996 3 3.375C3 2.754 3.504 2.25 4.125 2.25C4.746 2.25 5.25 2.754 5.25 3.375ZM8.25 3.375C8.25 3.996 7.746 4.5 7.125 4.5C6.504 4.5 6 3.996 6 3.375C6 2.754 6.504 2.25 7.125 2.25C7.746 2.25 8.25 2.754 8.25 3.375ZM14.25 0H3.75C1.68225 0 0 1.68225 0 3.75V12.75C0 14.8177 1.68225 16.5 3.75 16.5C4.164 16.5 4.5 16.1647 4.5 15.75C4.5 15.3352 4.164 15 3.75 15C2.5095 15 1.5 13.9905 1.5 12.75V6.75H16.5V12.75C16.5 13.2983 16.3005 13.827 15.9382 14.2372C15.6645 14.5477 15.6938 15.0217 16.005 15.2955C16.314 15.5692 16.7887 15.5408 17.0632 15.2288C17.6677 14.5448 18 13.6635 18 12.7493V3.75C18 1.68225 16.3177 0 14.25 0ZM1.5 5.25V3.75C1.5 2.5095 2.5095 1.5 3.75 1.5H14.25C15.4905 1.5 16.5 2.5095 16.5 3.75V5.25H1.5Z" fill="white"/>
</g>
<defs>
<clipPath id="clip0_243_12156">
<rect width="18" height="18" fill="white"/>
</clipPath>
</defs>
</svg>
