<svg width="14" height="14" viewBox="0 0 14 14" fill="none" xmlns="http://www.w3.org/2000/svg">
<path d="M6.10189 0.435033C6.49909 -0.14454 7.35442 -0.14454 7.75163 0.435032L9.5471 3.05484C9.67713 3.24457 9.86859 3.38367 10.0892 3.44871L13.1356 4.34674C13.8096 4.54541 14.0739 5.35887 13.6454 5.91574L11.7087 8.43289C11.5684 8.61519 11.4953 8.84027 11.5016 9.07019L11.5889 12.245C11.6082 12.9474 10.9163 13.4501 10.2543 13.2147L7.26181 12.1506C7.04509 12.0735 6.80843 12.0735 6.59171 12.1506L3.59926 13.2147C2.93725 13.4501 2.24527 12.9474 2.26459 12.245L2.35191 9.07019C2.35823 8.84027 2.2851 8.61519 2.14484 8.43289L0.208086 5.91574C-0.220376 5.35887 0.0439342 4.54541 0.717884 4.34674L3.7643 3.44871C3.98492 3.38367 4.17639 3.24457 4.30642 3.05484L6.10189 0.435033Z" fill="#FFCC00"/>
</svg>
