<svg width="30" height="30" viewBox="0 0 30 30" fill="none" xmlns="http://www.w3.org/2000/svg">
<g clip-path="url(#clip0_14_4052)">
<path d="M15.2938 29.0851C12.2745 29.0851 9.31567 28.0607 6.92211 26.1952L1.72297 27.8734C1.47576 27.9533 1.20666 27.8694 1.04572 27.6611C0.884773 27.4541 0.866747 27.1672 0.999365 26.9393L3.6028 22.4799C2.22512 20.241 1.49894 17.6655 1.49894 15.0061C1.50022 7.24541 7.68821 0.929688 15.2938 0.929688C22.8994 0.929688 29.0873 7.24541 29.0873 15.0074C29.0873 22.7694 22.8994 29.0851 15.2938 29.0851ZM7.04829 24.8498C7.18864 24.8498 7.3264 24.8982 7.43971 24.99C9.68906 26.8358 12.4045 27.8105 15.2951 27.8105C22.2131 27.8105 27.841 22.0659 27.841 15.0061C27.841 7.94628 22.2118 2.20305 15.2938 2.20305C8.37576 2.20305 2.74786 7.94759 2.74786 15.0074C2.74786 17.5502 3.47662 20.0079 4.85688 22.1131C4.99078 22.3175 4.99722 22.5821 4.87361 22.793L2.91138 26.1546L6.86031 24.8799C6.92211 24.8603 6.9852 24.8498 7.04829 24.8498Z" fill="#999999"/>
<path d="M15.2938 29.3435C12.2732 29.3435 9.28865 28.3283 6.8732 26.4824L1.80153 28.12C1.45518 28.2326 1.0702 28.1121 0.843589 27.8213C0.618267 27.5317 0.591228 27.1217 0.777923 26.8034L3.30153 22.4802C1.95346 20.2335 1.24144 17.6514 1.24144 15.0038C1.24273 7.09638 7.54531 0.664062 15.2938 0.664062C23.0423 0.664062 29.3449 7.09638 29.3449 15.0038C29.3449 22.9112 23.041 29.3435 15.2938 29.3435ZM6.97234 25.9007L7.07921 25.9833C9.42385 27.8121 12.3414 28.8195 15.2938 28.8195C22.7578 28.8195 28.8299 22.6217 28.8299 15.0038C28.8299 7.3859 22.7578 1.18808 15.2938 1.18808C7.82985 1.18808 1.75775 7.3859 1.75775 15.0038C1.75775 17.6069 2.47106 20.1444 3.8217 22.3387L3.90539 22.4737L1.22213 27.0706C1.14488 27.2042 1.15518 27.3745 1.24917 27.4964C1.34316 27.6169 1.50282 27.668 1.64573 27.6208L6.97234 25.9007ZM15.2938 28.0702C12.344 28.0702 9.57192 27.0745 7.27749 25.1907C7.1835 25.1134 7.05217 25.0885 6.93758 25.1252L2.34359 26.6082L4.65217 22.6558C4.72428 22.5326 4.72041 22.3741 4.64187 22.2549C3.23458 20.1064 2.49037 17.599 2.49037 15.0038C2.49037 7.79856 8.23415 1.93742 15.2938 1.93742C22.3535 1.93742 28.0972 7.79856 28.0972 15.0038C28.0972 22.209 22.3535 28.0702 15.2938 28.0702ZM7.04831 24.5842C7.24917 24.5842 7.44488 24.6549 7.60067 24.7833C9.80367 26.5911 12.4638 27.5462 15.2938 27.5462C22.0702 27.5462 27.5822 21.9195 27.5822 15.0038C27.5822 8.08808 22.0702 2.46144 15.2938 2.46144C8.51741 2.46144 3.00539 8.08808 3.00539 15.0038C3.00539 17.4955 3.71998 19.9021 5.07063 21.9641C5.25861 22.251 5.26762 22.6269 5.09509 22.923L3.47792 25.6924L6.78179 24.6261C6.86805 24.5986 6.95689 24.5842 7.04831 24.5842Z" fill="#999999"/>
<path d="M10.4435 13.6953C11.1581 13.6953 11.7543 14.3045 11.7543 15.0329C11.7543 15.7613 11.1568 16.3704 10.4435 16.3704C9.73024 16.3704 9.13281 15.7613 9.13281 15.0329C9.13281 14.3045 9.73024 13.6953 10.4435 13.6953Z" fill="#999999"/>
<path d="M10.4437 16.6366C9.59394 16.6366 8.87549 15.9043 8.87549 15.0371C8.87549 14.1698 9.59394 13.4375 10.4437 13.4375C11.2935 13.4375 12.012 14.1698 12.012 15.0371C12.012 15.9043 11.2935 16.6366 10.4437 16.6366ZM10.4437 13.9602C9.87205 13.9602 9.39051 14.4528 9.39051 15.0358C9.39051 15.6187 9.87334 16.1113 10.4437 16.1113C11.0141 16.1113 11.4969 15.6187 11.4969 15.0358C11.4969 14.4528 11.0141 13.9602 10.4437 13.9602Z" fill="#999999"/>
<path d="M15.612 13.6953C16.3266 13.6953 16.9227 14.3045 16.9227 15.0329C16.9227 15.7613 16.3253 16.3704 15.612 16.3704C14.8987 16.3704 14.3013 15.7613 14.3013 15.0329C14.3013 14.3045 14.8987 13.6953 15.612 13.6953Z" fill="#999999"/>
<path d="M15.6122 16.6366C14.7624 16.6366 14.0439 15.9043 14.0439 15.0371C14.0439 14.1698 14.7624 13.4375 15.6122 13.4375C16.462 13.4375 17.1804 14.1698 17.1804 15.0371C17.1804 15.9043 16.462 16.6366 15.6122 16.6366ZM15.6122 13.9602C15.0405 13.9602 14.559 14.4528 14.559 15.0358C14.559 15.6187 15.0418 16.1113 15.6122 16.1113C16.1826 16.1113 16.6654 15.6187 16.6654 15.0358C16.6654 14.4528 16.1826 13.9602 15.6122 13.9602Z" fill="#999999"/>
<path d="M20.78 13.6953C21.4946 13.6953 22.0907 14.3045 22.0907 15.0329C22.0907 15.7613 21.4933 16.3704 20.78 16.3704C20.0667 16.3704 19.4692 15.7613 19.4692 15.0329C19.4692 14.3045 20.0667 13.6953 20.78 13.6953Z" fill="#999999"/>
<path d="M20.7802 16.6366C19.9304 16.6366 19.2119 15.9043 19.2119 15.0371C19.2119 14.1698 19.9304 13.4375 20.7802 13.4375C21.6299 13.4375 22.3484 14.1698 22.3484 15.0371C22.3484 15.9043 21.6299 16.6366 20.7802 16.6366ZM20.7802 13.9602C20.2085 13.9602 19.7269 14.4528 19.7269 15.0358C19.7269 15.6187 20.2098 16.1113 20.7802 16.1113C21.3505 16.1113 21.8334 15.6187 21.8334 15.0358C21.8334 14.4528 21.3505 13.9602 20.7802 13.9602Z" fill="#999999"/>
<path d="M25.2231 30.002C27.8613 30.002 29.9999 27.8189 29.9999 25.126C29.9999 22.4331 27.8613 20.25 25.2231 20.25C22.5849 20.25 20.4463 22.4331 20.4463 25.126C20.4463 27.8189 22.5849 30.002 25.2231 30.002Z" fill="#7954C6"/>
</g>
<defs>
<clipPath id="clip0_14_4052">
<rect width="30" height="30" fill="white"/>
</clipPath>
</defs>
</svg>
