<svg width="12" height="12" viewBox="0 0 12 12" fill="none" xmlns="http://www.w3.org/2000/svg">
<g clip-path="url(#clip0_179_3033)">
<path d="M6 8C5.60444 8 5.21776 7.8827 4.88886 7.66294C4.55996 7.44318 4.30362 7.13082 4.15224 6.76537C4.00087 6.39992 3.96126 5.99778 4.03843 5.60982C4.1156 5.22186 4.30608 4.86549 4.58579 4.58579C4.86549 4.30608 5.22186 4.1156 5.60982 4.03843C5.99778 3.96126 6.39991 4.00087 6.76537 4.15224C7.13082 4.30362 7.44318 4.55996 7.66294 4.88886C7.8827 5.21776 8 5.60444 8 6C8 6.53043 7.78929 7.03914 7.41421 7.41422C7.03914 7.78929 6.53043 8 6 8ZM2.8415 8H0.5C0.367392 8 0.240215 7.94732 0.146447 7.85355C0.0526784 7.75979 0 7.63261 0 7.5C0.00473792 6.78205 0.265862 6.08943 0.736278 5.54704C1.20669 5.00466 1.85544 4.64821 2.5655 4.542C2.64801 4.53044 2.7321 4.53968 2.81013 4.56889C2.88816 4.59809 2.95766 4.64633 3.01231 4.70922C3.06695 4.77212 3.10501 4.84767 3.12304 4.92901C3.14106 5.01035 3.13847 5.09491 3.1155 5.175C3.03888 5.4433 3 5.72097 3 6C3.00014 6.44488 3.10028 6.88403 3.293 7.285C3.32925 7.36111 3.34567 7.44514 3.34073 7.5293C3.33579 7.61345 3.30965 7.69499 3.26475 7.76633C3.21985 7.83768 3.15764 7.89651 3.0839 7.93736C3.01017 7.97822 2.9273 7.99976 2.843 8H2.8415ZM8.5 12H3.5C3.36739 12 3.24021 11.9473 3.14645 11.8536C3.05268 11.7598 3 11.6326 3 11.5C3 10.7044 3.31607 9.94129 3.87868 9.37868C4.44129 8.81607 5.20435 8.5 6 8.5C6.79565 8.5 7.55871 8.81607 8.12132 9.37868C8.68393 9.94129 9 10.7044 9 11.5C9 11.6326 8.94732 11.7598 8.85355 11.8536C8.75979 11.9473 8.63261 12 8.5 12ZM9 4C8.60444 4 8.21776 3.8827 7.88886 3.66294C7.55996 3.44318 7.30362 3.13082 7.15224 2.76537C7.00087 2.39992 6.96126 1.99778 7.03843 1.60982C7.1156 1.22186 7.30608 0.865492 7.58579 0.585787C7.86549 0.306082 8.22186 0.115601 8.60982 0.0384303C8.99778 -0.0387401 9.39991 0.000866562 9.76537 0.152242C10.1308 0.303617 10.4432 0.559962 10.6629 0.88886C10.8827 1.21776 11 1.60444 11 2C11 2.53043 10.7893 3.03914 10.4142 3.41421C10.0391 3.78929 9.53043 4 9 4ZM3 4C2.60444 4 2.21776 3.8827 1.88886 3.66294C1.55996 3.44318 1.30362 3.13082 1.15224 2.76537C1.00087 2.39992 0.961259 1.99778 1.03843 1.60982C1.1156 1.22186 1.30608 0.865492 1.58579 0.585787C1.86549 0.306082 2.22186 0.115601 2.60982 0.0384303C2.99778 -0.0387401 3.39991 0.000866562 3.76537 0.152242C4.13082 0.303617 4.44318 0.559962 4.66294 0.88886C4.8827 1.21776 5 1.60444 5 2C5 2.53043 4.78929 3.03914 4.41421 3.41421C4.03914 3.78929 3.53043 4 3 4ZM11.5 8H9.1585C9.0742 7.99976 8.99133 7.97822 8.9176 7.93736C8.84386 7.89651 8.78165 7.83768 8.73675 7.76633C8.69185 7.69499 8.66571 7.61345 8.66077 7.5293C8.65583 7.44514 8.67225 7.36111 8.7085 7.285C8.9007 6.88391 9.00032 6.44476 9 6C8.99918 5.72086 8.95947 5.44318 8.882 5.175C8.8589 5.09469 8.8563 5.00986 8.87444 4.92828C8.89257 4.8467 8.93087 4.77097 8.98583 4.708C9.04078 4.64504 9.11064 4.59686 9.18902 4.56786C9.2674 4.53886 9.3518 4.52997 9.4345 4.542C10.1446 4.64821 10.7933 5.00466 11.2637 5.54704C11.7341 6.08943 11.9953 6.78205 12 7.5C12 7.63261 11.9473 7.75979 11.8536 7.85355C11.7598 7.94732 11.6326 8 11.5 8Z" fill="#888888"/>
</g>
<defs>
<clipPath id="clip0_179_3033">
<rect width="12" height="12" fill="white"/>
</clipPath>
</defs>
</svg>
