<svg width="30" height="30" viewBox="0 0 30 30" fill="none" xmlns="http://www.w3.org/2000/svg">
<g clip-path="url(#clip0_109_4995)">
<path d="M7.5 11.25C3.22375 11.25 0 13.1313 0 15.625V25.625C0 28.1187 3.22375 30 7.5 30C11.7762 30 15 28.1187 15 25.625V15.625C15 13.1313 11.7762 11.25 7.5 11.25ZM12.5 20.625C12.5 21.2862 10.6012 22.5 7.5 22.5C4.39875 22.5 2.5 21.2862 2.5 20.625V18.94C3.8075 19.6063 5.54375 20 7.5 20C9.45625 20 11.1925 19.6063 12.5 18.94V20.625ZM7.5 13.75C10.6012 13.75 12.5 14.9637 12.5 15.625C12.5 16.2862 10.6012 17.5 7.5 17.5C4.39875 17.5 2.5 16.2862 2.5 15.625C2.5 14.9637 4.39875 13.75 7.5 13.75ZM7.5 27.5C4.39875 27.5 2.5 26.2862 2.5 25.625V23.94C3.8075 24.6063 5.54375 25 7.5 25C9.45625 25 11.1925 24.6063 12.5 23.94V25.625C12.5 26.2862 10.6012 27.5 7.5 27.5ZM30 6.25V23.75C30 27.1963 27.1963 30 23.75 30H17.5C16.8088 30 16.25 29.44 16.25 28.75C16.25 28.06 16.8088 27.5 17.5 27.5H23.75C25.8175 27.5 27.5 25.8175 27.5 23.75V6.25C27.5 4.1825 25.8175 2.5 23.75 2.5H11.25C9.1825 2.5 7.5 4.1825 7.5 6.25V7.5C7.5 8.19 6.94125 8.75 6.25 8.75C5.55875 8.75 5 8.19 5 7.5V6.25C5 2.80375 7.80375 0 11.25 0H23.75C27.1963 0 30 2.80375 30 6.25ZM16.25 12.5C15.5588 12.5 15 11.94 15 11.25C15 10.56 15.5588 10 16.25 10H22.5V7.5H12.5V8.125C12.5 8.815 11.9412 9.375 11.25 9.375C10.5588 9.375 10 8.815 10 8.125V7.5C10 6.12125 11.1213 5 12.5 5H22.5C23.8787 5 25 6.12125 25 7.5V10C25 11.3787 23.8787 12.5 22.5 12.5H16.25ZM17.5 22.5C17.5 21.81 18.0588 21.25 18.75 21.25H23.75C24.4412 21.25 25 21.81 25 22.5C25 23.19 24.4412 23.75 23.75 23.75H18.75C18.0588 23.75 17.5 23.19 17.5 22.5ZM17.5 17.5V16.25C17.5 15.56 18.0588 15 18.75 15C19.4412 15 20 15.56 20 16.25V17.5C20 18.19 19.4412 18.75 18.75 18.75C18.0588 18.75 17.5 18.19 17.5 17.5ZM25 17.5C25 18.19 24.4412 18.75 23.75 18.75C23.0588 18.75 22.5 18.19 22.5 17.5V16.25C22.5 15.56 23.0588 15 23.75 15C24.4412 15 25 15.56 25 16.25V17.5Z" fill="#BBBBBB"/>
</g>
<defs>
<clipPath id="clip0_109_4995">
<rect width="30" height="30" fill="white"/>
</clipPath>
</defs>
</svg>
