<svg width="15" height="15" viewBox="0 0 15 15" fill="none" xmlns="http://www.w3.org/2000/svg">
<g clip-path="url(#clip0_79_5756)">
<path d="M14.0853 5.29125L9.7109 0.915625C9.12027 0.325625 8.3359 0 7.5009 0C6.6659 0 5.8809 0.325625 5.2909 0.915625L0.916524 5.29125C-0.301602 6.50938 -0.301602 8.49125 0.916524 9.70938L5.2909 14.085C5.8809 14.675 6.6659 15.0006 7.5009 15.0006C8.3359 15.0006 9.12027 14.675 9.7109 14.085L14.0853 9.70938C14.6753 9.11938 15.0003 8.335 15.0003 7.50063C15.0003 6.66625 14.6753 5.88125 14.0853 5.29125ZM13.2015 8.82563L8.82715 13.2013C8.1184 13.9094 6.8834 13.9094 6.17465 13.2013L1.80027 8.82563C1.06965 8.095 1.06965 6.90563 1.80027 6.175L6.17465 1.79938C6.52902 1.44563 6.99965 1.25 7.5009 1.25C8.00215 1.25 8.47277 1.445 8.82715 1.79938L13.2015 6.175C13.5553 6.52875 13.7503 6.99938 13.7503 7.50063C13.7503 8.00188 13.5553 8.47188 13.2015 8.82563ZM8.43777 10.3163C8.43777 10.8338 8.01777 11.2538 7.50027 11.2538C6.98277 11.2538 6.56277 10.8338 6.56277 10.3163C6.56277 9.79875 6.98277 9.37875 7.50027 9.37875C8.01777 9.37875 8.43777 9.79875 8.43777 10.3163ZM6.87527 7.81625V4.37875C6.87527 4.03313 7.15527 3.75375 7.50027 3.75375C7.84527 3.75375 8.12527 4.03313 8.12527 4.37875V7.81625C8.12527 8.16188 7.84527 8.44125 7.50027 8.44125C7.15527 8.44125 6.87527 8.16188 6.87527 7.81625Z" fill="#888888"/>
</g>
<defs>
<clipPath id="clip0_79_5756">
<rect width="15" height="15" fill="white"/>
</clipPath>
</defs>
</svg>
