<svg width="40" height="40" viewBox="0 0 40 40" fill="none" xmlns="http://www.w3.org/2000/svg">
<path d="M8.01375e-07 13.3333L8.10846e-07 13.55C0.0070872 14.2959 0.26169 15.0183 0.723833 15.6038C1.18598 16.1894 1.82949 16.6048 2.55333 16.785C3.25806 16.978 3.87987 17.3971 4.32309 17.978C4.76631 18.5589 5.00639 19.2693 5.00639 20C5.00639 20.7307 4.76631 21.4411 4.32309 22.022C3.87987 22.6029 3.25806 23.022 2.55333 23.215C1.82949 23.3952 1.18598 23.8106 0.723833 24.3962C0.26169 24.9817 0.0070877 25.7041 1.37472e-06 26.45L1.38419e-06 26.6667C0.00264791 28.876 0.881471 30.9941 2.4437 32.5563C4.00593 34.1185 6.12401 34.9974 8.33333 35L35 35C36.3261 35 37.5979 34.4732 38.5355 33.5355C39.4732 32.5979 40 31.3261 40 30L40 26.45C39.9929 25.7041 39.7383 24.9817 39.2762 24.3962C38.814 23.8106 38.1705 23.3952 37.4467 23.215C36.7419 23.022 36.1201 22.6029 35.6769 22.022C35.2337 21.4411 34.9936 20.7307 34.9936 20C34.9936 19.2693 35.2337 18.5589 35.6769 17.978C36.1201 17.3971 36.7419 16.978 37.4467 16.785C38.1705 16.6048 38.814 16.1894 39.2762 15.6038C39.7383 15.0183 39.9929 14.2959 40 13.55L40 10C40 8.67392 39.4732 7.40215 38.5355 6.46447C37.5979 5.52678 36.3261 5 35 5L8.33333 5C6.12401 5.00265 4.00593 5.88147 2.4437 7.4437C0.881471 9.00593 0.00264713 11.124 8.01375e-07 13.3333ZM36.6667 10L36.5617 13.5717C35.1474 13.9631 33.9017 14.8103 33.018 15.9818C32.1342 17.1533 31.6616 18.5837 31.6736 20.0511C31.6856 21.5185 32.1814 22.941 33.0841 24.098C33.9869 25.2549 35.2462 26.0817 36.6667 26.45L36.6667 30C36.6667 30.442 36.4911 30.866 36.1785 31.1785C35.866 31.4911 35.442 31.6667 35 31.6667L28.3333 31.6667L28.3333 28.3333C28.3333 27.8913 28.1577 27.4674 27.8452 27.1548C27.5326 26.8423 27.1087 26.6667 26.6667 26.6667C26.2246 26.6667 25.8007 26.8423 25.4882 27.1548C25.1756 27.4674 25 27.8913 25 28.3333L25 31.6667L8.33333 31.6667C7.00725 31.6667 5.73548 31.1399 4.7978 30.2022C3.86012 29.2645 3.33333 27.9928 3.33333 26.6667L3.43833 26.4283C4.84404 26.038 6.08341 25.1983 6.96725 24.0376C7.8511 22.8769 8.33087 21.4589 8.33333 20C8.32075 18.5214 7.8255 17.0874 6.92294 15.9162C6.02037 14.7449 4.75991 13.9006 3.33333 13.5117L3.33333 13.3333C3.33333 12.0073 3.86012 10.7355 4.7978 9.7978C5.73548 8.86012 7.00725 8.33334 8.33333 8.33334L25 8.33333L25 11.6667C25 12.1087 25.1756 12.5326 25.4882 12.8452C25.8007 13.1577 26.2246 13.3333 26.6667 13.3333C27.1087 13.3333 27.5326 13.1577 27.8452 12.8452C28.1577 12.5326 28.3333 12.1087 28.3333 11.6667L28.3333 8.33333L35 8.33333C35.442 8.33333 35.866 8.50893 36.1785 8.82149C36.4911 9.13405 36.6667 9.55797 36.6667 10Z" fill="#888888"/>
<path d="M25 18.3335L25 21.6668C25 22.1089 25.1756 22.5328 25.4882 22.8453C25.8007 23.1579 26.2246 23.3335 26.6667 23.3335C27.1087 23.3335 27.5326 23.1579 27.8452 22.8453C28.1577 22.5328 28.3333 22.1089 28.3333 21.6668L28.3333 18.3335C28.3333 17.8915 28.1577 17.4675 27.8452 17.155C27.5326 16.8424 27.1087 16.6668 26.6667 16.6668C26.2246 16.6668 25.8007 16.8424 25.4882 17.155C25.1756 17.4675 25 17.8915 25 18.3335Z" fill="#888888"/>
</svg>
