<svg width="12" height="12" viewBox="0 0 12 12" fill="none" xmlns="http://www.w3.org/2000/svg">
<path d="M5.5 6C5.63261 6 5.75979 6.05268 5.85355 6.14645C5.94732 6.24021 6 6.36739 6 6.5C6 6.63261 5.94732 6.75979 5.85355 6.85355C5.75979 6.94732 5.63261 7 5.5 7H4C3.86739 7 3.74021 6.94732 3.64645 6.85355C3.55268 6.75979 3.5 6.63261 3.5 6.5C3.5 6.36739 3.55268 6.24021 3.64645 6.14645C3.74021 6.05268 3.86739 6 4 6H5.5ZM8.5 4.5C8.5 4.36739 8.44732 4.24021 8.35355 4.14645C8.25979 4.05268 8.13261 4 8 4H4C3.86739 4 3.74021 4.05268 3.64645 4.14645C3.55268 4.24021 3.5 4.36739 3.5 4.5C3.5 4.63261 3.55268 4.75979 3.64645 4.85355C3.74021 4.94732 3.86739 5 4 5H8C8.13261 5 8.25979 4.94732 8.35355 4.85355C8.44732 4.75979 8.5 4.63261 8.5 4.5ZM4 3H8C8.13261 3 8.25979 2.94732 8.35355 2.85355C8.44732 2.75979 8.5 2.63261 8.5 2.5C8.5 2.36739 8.44732 2.24021 8.35355 2.14645C8.25979 2.05268 8.13261 2 8 2H4C3.86739 2 3.74021 2.05268 3.64645 2.14645C3.55268 2.24021 3.5 2.36739 3.5 2.5C3.5 2.63261 3.55268 2.75979 3.64645 2.85355C3.74021 2.94732 3.86739 3 4 3ZM10 9.722V11.6385C10 11.7098 9.97891 11.7796 9.9393 11.8389C9.89969 11.8982 9.84338 11.9444 9.77748 11.9717C9.71159 11.999 9.63907 12.0062 9.56912 11.9922C9.49917 11.9783 9.43492 11.944 9.3845 11.8935L9 11.5095L8.6155 11.8935C8.56508 11.944 8.50083 11.9783 8.43088 11.9922C8.36093 12.0062 8.28841 11.999 8.22252 11.9717C8.15662 11.9444 8.10031 11.8982 8.0607 11.8389C8.02109 11.7796 7.99997 11.7098 8 11.6385V9.722C7.61867 9.50291 7.3205 9.16387 7.15191 8.75768C6.98332 8.35149 6.95378 7.90096 7.0679 7.47623C7.18201 7.05151 7.43336 6.67644 7.78282 6.40944C8.13228 6.14243 8.56022 5.99848 9 6C9.16902 6.00211 9.33707 6.02597 9.5 6.071V2.5C9.5 2.10218 9.34196 1.72064 9.06066 1.43934C8.77936 1.15804 8.39782 1 8 1H4C3.60218 1 3.22064 1.15804 2.93934 1.43934C2.65804 1.72064 2.5 2.10218 2.5 2.5V8.5C2.5 8.89782 2.65804 9.27936 2.93934 9.56066C3.22064 9.84196 3.60218 10 4 10H6.5C6.63261 10 6.75979 10.0527 6.85355 10.1464C6.94732 10.2402 7 10.3674 7 10.5C7 10.6326 6.94732 10.7598 6.85355 10.8536C6.75979 10.9473 6.63261 11 6.5 11H4C3.3372 10.9992 2.70178 10.7356 2.23311 10.2669C1.76444 9.79822 1.50079 9.1628 1.5 8.5V2.5C1.50079 1.8372 1.76444 1.20178 2.23311 0.73311C2.70178 0.264441 3.3372 0.000793929 4 0L8 0C8.6628 0.000793929 9.29822 0.264441 9.76689 0.73311C10.2356 1.20178 10.4992 1.8372 10.5 2.5V6.691C10.6959 6.91095 10.84 7.17191 10.922 7.45479C11.004 7.73767 11.0216 8.0353 10.9737 8.32588C10.9258 8.61647 10.8134 8.89265 10.645 9.13422C10.4765 9.37578 10.2561 9.57661 10 9.722ZM10 8C10 7.80222 9.94135 7.60888 9.83147 7.44443C9.72159 7.27998 9.56541 7.15181 9.38268 7.07612C9.19996 7.00043 8.99889 6.98063 8.80491 7.01921C8.61093 7.0578 8.43275 7.15304 8.29289 7.29289C8.15304 7.43275 8.0578 7.61093 8.01921 7.80491C7.98063 7.99889 8.00043 8.19996 8.07612 8.38268C8.15181 8.56541 8.27998 8.72159 8.44443 8.83147C8.60888 8.94135 8.80222 9 9 9C9.26522 9 9.51957 8.89464 9.70711 8.70711C9.89464 8.51957 10 8.26522 10 8Z" fill="#BBBBBB"/>
</svg>
