<svg width="12" height="17" viewBox="0 0 12 17" fill="none" xmlns="http://www.w3.org/2000/svg">
<path d="M7.83354 16.8378L5.84143 14.9014L3.91484 16.8309L2.69238 16.3253V10.2639L3.22244 9.57247L4.39991 9.25562L5.14317 9.49717L5.87077 10.3969L6.59838 9.49717L7.34163 9.25562L8.51909 9.57247L9.04915 10.2639V16.3253L7.83354 16.8388V16.8378ZM6.33432 13.3816L7.61741 14.6286V10.8116L7.41986 10.7587L6.4282 11.9861H5.31431L4.32265 10.7587L4.1251 10.8116V14.5933L5.32799 13.3885L6.33432 13.3807V13.3816Z" fill="white"/>
<path d="M5.31427 11.9859L4.32261 10.7586L2.79894 11.1684L1.89823 10.5141L1.81707 8.9386L0.344246 8.37431L0 7.31518L0.860614 5.99297L0 4.67076L0.344246 3.61162L1.81707 3.04734L1.89823 1.47184L2.79894 0.817577L4.32261 1.22734L5.31427 0H6.42816L7.41982 1.22734L8.9435 0.817577L9.8442 1.47184L9.92537 3.04734L11.3982 3.61162L11.7424 4.67076L10.8818 5.99297L11.7424 7.31518L11.3982 8.37431L9.92537 8.9386L9.8442 10.5141L8.9435 11.1684L7.41982 10.7586L6.42816 11.9859H5.31427ZM4.39986 9.25546L5.14313 9.49702L5.87073 10.3977L6.59834 9.49702L7.34159 9.25546L8.4594 9.55569L8.51905 8.39974L8.97772 7.76797L10.0584 7.35429L9.42661 6.38415V5.60276L10.0574 4.63262L8.97674 4.21894L8.51711 3.58717L8.45744 2.43122L7.33963 2.73146L6.59638 2.4899L5.86877 1.58919L5.14117 2.4899L4.39792 2.73146L3.2801 2.43122L3.22044 3.58717L2.76177 4.21894L1.68113 4.63262L2.31191 5.60276V6.38415L1.68113 7.35429L2.76177 7.76797L3.22044 8.39974L3.2801 9.55569L4.39792 9.25546H4.39986Z" fill="white"/>
</svg>
