<svg width="30" height="30" viewBox="0 0 30 30" fill="none" xmlns="http://www.w3.org/2000/svg">
<g clip-path="url(#clip0_109_5002)">
<path d="M5 11.25H12.5V15H5V11.25ZM5 20H7.5V17.5H5V20ZM10 20H12.5V17.5H10V20ZM5 25H7.5V22.5H5V25ZM10 25H12.5V22.5H10V25ZM30 8.125V23.2425L26.0925 20.8675L22.5 23.1262L20 21.555V18.515L22.5 20.0825L26.0013 17.8875L27.5 18.7987V8.125C27.5 5.02375 24.9762 2.5 21.875 2.5C19.0575 2.5 16.7388 4.58875 16.3337 7.295C17.0487 7.97875 17.5 8.935 17.5 10V30H0V10C0 8.61875 0.76 7.4225 1.875 6.77125V6.25C1.875 2.80375 4.67875 0 8.125 0H21.875C26.355 0 30 3.645 30 8.125ZM15 10C15 9.31 14.44 8.75 13.75 8.75H3.75C3.06 8.75 2.5 9.31 2.5 10V27.5H15V10ZM13.9713 6.2725C14.31 4.83 15.0312 3.53375 16.025 2.5H8.12375C6.05625 2.5 4.37375 4.1825 4.37375 6.25H13.7487C13.825 6.25 13.895 6.2675 13.97 6.2725H13.9713Z" fill="#BBBBBB"/>
</g>
<defs>
<clipPath id="clip0_109_5002">
<rect width="30" height="30" fill="white"/>
</clipPath>
</defs>
</svg>
