<svg width="20" height="12" viewBox="0 0 20 12" fill="none" xmlns="http://www.w3.org/2000/svg">
<path d="M5.89635 0.00651905L6.40156 0.0456334C7.66949 0.195568 8.85267 0.788788 9.77836 1.6558C9.63168 1.85137 9.48174 2.04042 9.34811 2.2425C8.95371 2.84224 8.61147 3.54955 8.36701 4.22751C8.35072 4.26988 8.27901 4.52412 8.26271 4.52738C8.12907 4.49804 8.11603 4.41656 8.0541 4.32203C7.2425 3.08996 5.56714 2.68579 4.33507 3.56258C3.10299 4.43937 2.88461 6.24185 3.88527 7.3631C5.08474 8.706 7.15124 8.41916 7.87158 6.75684C8.32138 5.71708 8.67014 4.59583 9.10691 3.54628C9.89243 1.64928 11.5678 0.299871 13.6278 0.0456334L14.1591 0.0097792H14.4394L14.9446 0.0488923C17.5033 0.335724 19.6121 2.40222 19.9478 4.95437L20 5.50847V6.02347L19.9478 6.52868C19.6023 9.07432 17.4935 11.1343 14.9446 11.4342L14.4883 11.4733H14.0971L13.6017 11.4374C12.399 11.3038 11.1897 10.704 10.3129 9.87614C10.2966 9.85984 10.2379 9.81095 10.2379 9.7914C10.6877 9.26662 11.0332 8.67992 11.2973 8.04433C11.4667 7.64016 11.6004 7.21969 11.7764 6.81877C12.1252 7.53259 12.8064 8.11604 13.5821 8.30508C15.2673 8.71904 16.822 7.31421 16.7405 5.62256C16.6232 3.08996 13.1551 2.29466 12.1056 4.79466C11.6395 5.90287 11.2875 7.10561 10.792 8.19426C9.99022 9.95111 8.30508 11.2125 6.37223 11.4309L5.84094 11.47H5.63233L5.06519 11.4309C2.26858 11.118 0.0456301 8.70274 0.0130356 5.87679C0.0130356 5.85724 0.0195567 5.82138 0 5.80835C0 5.77249 0 5.73338 0 5.69752C0.0228162 4.93155 0.166229 4.17862 0.475877 3.47132C1.36245 1.43416 3.34745 0.0847458 5.57366 0H5.89309L5.89635 0.00651905Z" fill="url(#paint0_linear_109_10195)"/>
<defs>
<linearGradient id="paint0_linear_109_10195" x1="10" y1="0" x2="10" y2="11.4733" gradientUnits="userSpaceOnUse">
<stop stop-color="#7954C6"/>
<stop offset="1" stop-color="#FC5758"/>
</linearGradient>
</defs>
</svg>
