<svg width="15" height="15" viewBox="0 0 15 15" fill="none" xmlns="http://www.w3.org/2000/svg">
<g clip-path="url(#clip0_243_4198)">
<path d="M14.6831 6.885C14.3787 6.47625 13.9119 6.24125 13.4019 6.24125H13.125V4.99938C13.125 3.27625 11.7231 1.87438 10 1.87438H6.84C6.74375 1.87438 6.64625 1.85125 6.56063 1.80875L4.58875 0.8225C4.33 0.693125 4.04 0.625 3.75 0.625H2.5C1.12125 0.624375 0 1.74563 0 3.12438V11.2494C0 12.9725 1.40188 14.3744 3.125 14.3744H10.9738C12.365 14.3744 13.5675 13.4794 13.975 12.12L14.9325 8.2975C15.0787 7.80875 14.9875 7.29438 14.6831 6.885ZM1.25 11.2494V3.12438C1.25 2.435 1.81062 1.87438 2.5 1.87438H3.75C3.84625 1.87438 3.94375 1.8975 4.02938 1.94L6.00125 2.92625C6.26 3.05563 6.55 3.12375 6.84 3.12375H10C11.0337 3.12375 11.875 3.965 11.875 4.99875V6.24063H5.38437C4.32187 6.24063 3.37313 6.915 3.01625 7.94063L1.6475 12.4019C1.39875 12.0838 1.25 11.6838 1.25 11.2494ZM13.7275 7.96625L12.77 11.7881C12.53 12.5875 11.8081 13.1244 10.9738 13.1244H3.125C2.995 13.1244 2.86812 13.1112 2.74563 13.0856L4.20438 8.33C4.37875 7.82813 4.85375 7.49125 5.385 7.49125H13.4025C13.5538 7.49125 13.6419 7.57875 13.6806 7.63125C13.7194 7.68375 13.7781 7.79313 13.7275 7.96625Z" fill="#333333"/>
</g>
<defs>
<clipPath id="clip0_243_4198">
<rect width="15" height="15" fill="white"/>
</clipPath>
</defs>
</svg>
