<svg width="15" height="15" viewBox="0 0 15 15" fill="none" xmlns="http://www.w3.org/2000/svg">
<g clip-path="url(#clip0_31_12559)">
<path d="M10.9375 0H4.0625C3.15117 0.00115766 2.2775 0.363694 1.6331 1.0081C0.988693 1.6525 0.626158 2.52617 0.625 3.4375V12.795C0.62547 13.2327 0.757252 13.6602 1.0033 14.0223C1.24936 14.3843 1.59836 14.6642 2.00519 14.8257C2.41201 14.9873 2.85795 15.0231 3.28533 14.9284C3.71271 14.8338 4.10187 14.6132 4.4025 14.295L7.4725 11.045L10.6056 14.3263C10.9072 14.642 11.2964 14.8603 11.7231 14.953C12.1497 15.0457 12.5944 15.0086 12.9998 14.8464C13.4052 14.6843 13.7528 14.4045 13.9979 14.0432C14.243 13.6818 14.3743 13.2554 14.375 12.8188V3.4375C14.3738 2.52617 14.0113 1.6525 13.3669 1.0081C12.7225 0.363694 11.8488 0.00115766 10.9375 0ZM12.5 12.8188C12.4999 12.8811 12.4811 12.9419 12.4462 12.9935C12.4112 13.0451 12.3616 13.0851 12.3037 13.1082C12.2459 13.1314 12.1824 13.1368 12.1215 13.1236C12.0606 13.1104 12.005 13.0794 11.9619 13.0344L8.14937 9.04C8.06153 8.94802 7.95589 8.87488 7.83888 8.82502C7.72187 8.77517 7.59594 8.74964 7.46875 8.75C7.34161 8.75038 7.21587 8.77662 7.09918 8.82711C6.9825 8.87761 6.87731 8.95132 6.79 9.04375L3.04 13.0094C2.99815 13.0566 2.94243 13.0895 2.88081 13.1032C2.81918 13.1169 2.7548 13.1107 2.69688 13.0856C2.6372 13.0647 2.58584 13.0252 2.55038 12.9729C2.51492 12.9205 2.49726 12.8582 2.5 12.795V3.4375C2.5 3.0231 2.66462 2.62567 2.95765 2.33265C3.25067 2.03962 3.6481 1.875 4.0625 1.875H10.9375C11.3519 1.875 11.7493 2.03962 12.0424 2.33265C12.3354 2.62567 12.5 3.0231 12.5 3.4375V12.8188Z" fill="#7954C6"/>
</g>
<defs>
<clipPath id="clip0_31_12559">
<rect width="15" height="15" fill="white"/>
</clipPath>
</defs>
</svg>
