<svg width="9" height="10" viewBox="0 0 9 10" fill="none" xmlns="http://www.w3.org/2000/svg">
<path d="M3.7533 9.28571L3.7533 2.14286L1.28402 4.49286C1.21425 4.55981 1.13124 4.61294 1.03978 4.64921C0.948315 4.68547 0.850216 4.70414 0.751135 4.70414C0.652055 4.70414 0.553955 4.68547 0.462495 4.64921C0.371034 4.61294 0.288024 4.55981 0.218251 4.49286C0.0784625 4.35903 -1.82626e-07 4.17799 -1.74377e-07 3.98929C-1.66129e-07 3.80058 0.0784625 3.61954 0.218251 3.48571L3.44558 0.421429C3.72579 0.153152 4.10637 0.00159503 4.50384 1.96869e-07C4.8987 0.00347635 5.27622 0.154889 5.5546 0.421429L8.78192 3.48571C8.85141 3.55231 8.90643 3.63129 8.94385 3.71812C8.98126 3.80496 9.00034 3.89796 9 3.99181C8.99965 4.08567 8.97988 4.17853 8.94182 4.26512C8.90375 4.3517 8.84815 4.4303 8.77817 4.49643C8.70819 4.56256 8.62521 4.61492 8.53396 4.65053C8.44272 4.68614 8.345 4.7043 8.24638 4.70397C8.14776 4.70364 8.05018 4.68482 7.95921 4.6486C7.86823 4.61238 7.78564 4.55946 7.71615 4.49286L5.25438 2.14286L5.25438 9.28571C5.25438 9.47516 5.1753 9.65684 5.03455 9.79079C4.8938 9.92475 4.70289 10 4.50384 10C4.30478 10 4.11388 9.92475 3.97313 9.79079C3.83237 9.65684 3.7533 9.47516 3.7533 9.28571Z" fill="white"/>
</svg>
