<svg width="9" height="8" viewBox="0 0 9 8" fill="none" xmlns="http://www.w3.org/2000/svg">
<path d="M1.09878 7.28303L7.28467 3.7116L6.48415 7.02506C6.46106 7.11896 6.45654 7.21742 6.47087 7.31476C6.48519 7.4121 6.51808 7.50639 6.56762 7.59219C6.61716 7.678 6.68237 7.75362 6.75951 7.8147C6.83665 7.87577 6.92417 7.92109 7.01704 7.94804C7.20283 8.00219 7.39884 7.97962 7.56227 7.88527C7.72569 7.79092 7.84324 7.63245 7.88925 7.44447L8.92933 3.11738C9.02156 2.74057 8.96252 2.3352 8.76517 1.99019C8.56473 1.64996 8.24484 1.39873 7.87482 1.29092L3.60741 0.0281152C3.51499 0.0012375 3.41909 -0.00692722 3.32518 0.00408651C3.23127 0.015101 3.14119 0.0450778 3.06008 0.092306C2.97898 0.139534 2.90843 0.20309 2.85248 0.279343C2.79653 0.355596 2.75627 0.443054 2.73398 0.536723C2.7117 0.630392 2.70785 0.728437 2.72263 0.825262C2.73741 0.922086 2.77055 1.01579 2.82014 1.10103C2.86974 1.18627 2.93482 1.26137 3.01168 1.32205C3.08854 1.38273 3.17567 1.42779 3.26808 1.45467L6.53413 2.41163L0.348236 5.98306C0.184175 6.07778 0.066372 6.2371 0.0207404 6.42597C-0.0248903 6.61484 0.00538876 6.8178 0.104917 6.99019C0.204445 7.16257 0.365068 7.29027 0.551453 7.34519C0.737838 7.40011 0.934716 7.37775 1.09878 7.28303Z" fill="#BBBBBB"/>
</svg>
