<svg width="25" height="25" viewBox="0 0 25 25" fill="none" xmlns="http://www.w3.org/2000/svg">
<g clip-path="url(#clip0_2798_22747)">
<path d="M24.4719 11.4763C23.9646 10.7951 23.1865 10.4034 22.3365 10.4034H21.875V8.33359C21.875 5.46172 19.5385 3.12526 16.6667 3.12526H11.4C11.2396 3.12526 11.0771 3.08672 10.9344 3.01589L7.64792 1.37214C7.21667 1.15651 6.73333 1.04297 6.25 1.04297H4.16667C1.86875 1.04193 0 2.91068 0 5.20859V18.7503C0 21.6221 2.33646 23.9586 5.20833 23.9586H18.2896C20.6083 23.9586 22.6125 22.4669 23.2917 20.2013L24.8875 13.8305C25.1312 13.0159 24.9792 12.1586 24.4719 11.4763ZM2.08333 18.7503V5.20859C2.08333 4.05964 3.01771 3.12526 4.16667 3.12526H6.25C6.41042 3.12526 6.57292 3.1638 6.71562 3.23464L10.0021 4.87839C10.4333 5.09401 10.9167 5.20755 11.4 5.20755H16.6667C18.3896 5.20755 19.7917 6.60964 19.7917 8.33255V10.4023H8.97396C7.20312 10.4023 5.62187 11.5263 5.02708 13.2357L2.74583 20.6711C2.33125 20.1409 2.08333 19.4742 2.08333 18.7503ZM22.8792 13.2784L21.2833 19.6482C20.8833 20.9805 19.6802 21.8753 18.2896 21.8753H5.20833C4.99167 21.8753 4.78021 21.8534 4.57604 21.8107L7.00729 13.8846C7.29792 13.0482 8.08958 12.4867 8.975 12.4867H22.3375C22.5896 12.4867 22.7365 12.6326 22.801 12.7201C22.8656 12.8076 22.9635 12.9898 22.8792 13.2784Z" fill="white"/>
</g>
<defs>
<clipPath id="clip0_2798_22747">
<rect width="25" height="25" fill="white"/>
</clipPath>
</defs>
</svg>
