<svg width="40" height="47" viewBox="0 0 40 47" fill="none" xmlns="http://www.w3.org/2000/svg">
<path d="M39.2859 23.2459V23.2439C40.0693 24.565 40.2149 26.1532 39.6883 27.5974C39.1698 29.0182 38.0673 30.1156 36.657 30.615V40.6258L19.9881 46.2498L3.31814 40.6258V30.6131C1.9213 30.0985 0.832987 29.0032 0.316187 27.5877C-0.217238 26.1281 -0.0713034 24.5249 0.720484 23.1902L4.2449 17.2498L19.9881 22.5613L35.7302 17.2498L39.2859 23.2459ZM21.6551 42.1355L33.324 38.197V31.7429L28.0545 33.5203C27.5244 33.6991 26.984 33.7849 26.4539 33.7849C24.7386 33.7849 23.1119 32.8888 22.1834 31.323L21.6551 30.4304V42.1355ZM17.7927 31.323C16.8642 32.8889 15.2366 33.7849 13.5213 33.7849C12.9914 33.7849 12.4499 33.699 11.9217 33.5203L6.65212 31.742V38.1961L18.3211 42.1336V30.4304L17.7927 31.323ZM3.57986 24.9285V24.9314C3.31148 25.3836 3.26144 25.9275 3.44314 26.4236C3.62488 26.9178 4.01167 27.2969 4.50662 27.4656L12.9763 30.323C13.7181 30.5727 14.5283 30.2737 14.9334 29.5886L17.489 25.2771L5.72537 21.3074L3.57986 24.9285ZM22.4861 25.2761L25.0418 29.5867C25.4468 30.2734 26.2487 30.569 26.9988 30.3211L35.5291 27.4441C36.0089 27.2805 36.3852 26.911 36.5603 26.4304L36.5623 26.4285C36.739 25.9476 36.6895 25.4209 36.4295 24.9822L34.2508 21.3054L22.4861 25.2761ZM22.3787 0.87868C23.5503 -0.292893 25.4493 -0.292893 26.6209 0.87868C27.7922 2.05027 27.7924 3.94936 26.6209 5.12087L24.242 7.49977L26.6209 9.87868C27.7922 11.0503 27.7924 12.9494 26.6209 14.1209C25.4493 15.2921 23.5502 15.2921 22.3787 14.1209L19.9998 11.742L17.6209 14.1209C16.4493 15.2921 14.5502 15.2921 13.3787 14.1209C12.2072 12.9494 12.2074 11.0503 13.3787 9.87868L15.7576 7.49977L13.3787 5.12087C12.2072 3.94939 12.2074 2.05027 13.3787 0.87868C14.5503 -0.292893 16.4493 -0.292893 17.6209 0.87868L19.9998 3.25759L22.3787 0.87868Z" fill="#555555"/>
</svg>
