<svg width="10" height="9" viewBox="0 0 10 9" fill="none" xmlns="http://www.w3.org/2000/svg">
<path d="M0.714286 3.7533H7.85714L5.50714 1.28402C5.44019 1.21425 5.38706 1.13124 5.35079 1.03978C5.31453 0.948316 5.29586 0.850216 5.29586 0.751135C5.29586 0.652055 5.31453 0.553955 5.35079 0.462495C5.38706 0.371035 5.44019 0.288024 5.50714 0.218252C5.64097 0.0784627 5.82201 0 6.01071 0C6.19942 0 6.38046 0.0784627 6.51429 0.218252L9.57857 3.44558C9.84685 3.72579 9.99841 4.10637 10 4.50384C9.99652 4.8987 9.84511 5.27622 9.57857 5.5546L6.51429 8.78192C6.44769 8.85141 6.36871 8.90643 6.28188 8.94385C6.19504 8.98126 6.10204 9.00034 6.00819 9C5.91434 8.99965 5.82147 8.97988 5.73488 8.94182C5.6483 8.90376 5.5697 8.84815 5.50357 8.77817C5.43744 8.70819 5.38508 8.62521 5.34947 8.53396C5.31386 8.44272 5.2957 8.345 5.29603 8.24638C5.29636 8.14777 5.31518 8.05018 5.3514 7.95921C5.38762 7.86823 5.44054 7.78564 5.50714 7.71615L7.85714 5.25438H0.714286C0.524845 5.25438 0.343163 5.1753 0.209208 5.03455C0.0752544 4.8938 0 4.70289 0 4.50384C0 4.30478 0.0752544 4.11388 0.209208 3.97313C0.343163 3.83237 0.524845 3.7533 0.714286 3.7533Z" fill="white"/>
</svg>
