<svg width="26" height="26" viewBox="0 0 26 26" fill="none" xmlns="http://www.w3.org/2000/svg">
<g clip-path="url(#clip0_2798_22756)">
<path d="M26 7.58333V5.41667H23.8333C23.8333 3.62483 22.3752 2.16667 20.5833 2.16667V0H18.4167V2.16667H16.25V0H14.0833V2.16667H11.9167V0H9.75V2.16667H7.58333V0H5.41667V2.16667C3.62483 2.16667 2.16667 3.62483 2.16667 5.41667H0V7.58333H2.16667V9.75H0V11.9167H2.16667V14.0833H0V16.25H2.16667V18.4167H0V20.5833H2.16667V23.8333H5.41667V26H7.58333V23.8333H9.75V26H11.9167V23.8333H14.0833V26H16.25V23.8333H18.4167V26H20.5833V23.8333H23.8333V20.5833H26V18.4167H23.8333V16.25H26V14.0833H23.8333V11.9167H26V9.75H23.8333V7.58333H26ZM21.6667 21.6667H4.33333V5.41667C4.33333 4.81867 4.81975 4.33333 5.41667 4.33333H20.5833C21.1803 4.33333 21.6667 4.81867 21.6667 5.41667V21.6667ZM11.7823 7.77833C10.3599 7.1825 8.91042 8.01775 8.60058 9.35783L6.5 18.4167H8.72408L8.97542 17.3333H12.6913L12.9426 18.4167H15.1667L13.0845 9.43475C12.9177 8.71758 12.4616 8.06325 11.7823 7.77942V7.77833ZM9.47808 15.1667L10.7109 9.8475C10.7239 9.79008 10.7748 9.75 10.8333 9.75C10.8918 9.75 10.9427 9.79008 10.9558 9.8475L12.1886 15.1667H9.47808ZM16.25 7.58333H18.4167V18.4167H16.25V7.58333Z" fill="white"/>
</g>
<defs>
<clipPath id="clip0_2798_22756">
<rect width="26" height="26" fill="white"/>
</clipPath>
</defs>
</svg>
