<svg width="9" height="8" viewBox="0 0 9 8" fill="none" xmlns="http://www.w3.org/2000/svg">
<path d="M1.09878 7.28376L7.28467 3.71233L6.48415 7.02579C6.46106 7.11969 6.45654 7.21815 6.47087 7.31549C6.48519 7.41283 6.51808 7.50712 6.56762 7.59293C6.61716 7.67873 6.68237 7.75435 6.75951 7.81543C6.83665 7.8765 6.92417 7.92182 7.01704 7.94877C7.20283 8.00292 7.39884 7.98035 7.56227 7.886C7.72569 7.79165 7.84324 7.63318 7.88925 7.4452L8.92933 3.11811C9.02156 2.7413 8.96252 2.33593 8.76517 1.99092C8.56473 1.6507 8.24484 1.39946 7.87482 1.29165L3.60741 0.0288477C3.51499 0.00196993 3.41909 -0.0061948 3.32518 0.00481894C3.23127 0.0158334 3.14119 0.0458103 3.06008 0.0930385C2.97898 0.140267 2.90843 0.203822 2.85248 0.280075C2.79653 0.356329 2.75627 0.443786 2.73398 0.537456C2.7117 0.631125 2.70785 0.72917 2.72263 0.825994C2.73741 0.922819 2.77055 1.01653 2.82014 1.10176C2.86974 1.187 2.93482 1.26211 3.01168 1.32278C3.08854 1.38346 3.17567 1.42852 3.26808 1.4554L6.53413 2.41236L0.348236 5.98379C0.184175 6.07851 0.066372 6.23783 0.0207404 6.4267C-0.0248903 6.61558 0.00538876 6.81853 0.104917 6.99092C0.204445 7.16331 0.365068 7.29101 0.551453 7.34592C0.737838 7.40084 0.934716 7.37848 1.09878 7.28376Z" fill="white"/>
</svg>
