<svg width="30" height="30" viewBox="0 0 30 30" fill="none" xmlns="http://www.w3.org/2000/svg">
<path d="M28.1697 10.5821L19.4194 1.83117C18.2379 0.651223 16.6689 0 14.9986 0C13.3283 0 11.758 0.651223 10.5778 1.83117L1.82751 10.5821C-0.60917 13.0182 -0.60917 16.9818 1.82751 19.4179L10.5778 28.1688C11.758 29.3488 13.3283 30 14.9986 30C16.6689 30 18.2379 29.3488 19.4194 28.1688L28.1697 19.4179C29.3499 18.238 30 16.6693 30 15.0006C30 13.3319 29.3499 11.762 28.1697 10.5821ZM26.4019 17.6505L17.6516 26.4014C16.2338 27.8176 13.7634 27.8176 12.3456 26.4014L3.59532 17.6505C2.13382 16.1893 2.13382 13.8107 3.59532 12.3495L12.3456 3.5986C13.0545 2.89113 13.9959 2.4999 14.9986 2.4999C16.0013 2.4999 16.9427 2.88988 17.6516 3.5986L26.4019 12.3495C27.1095 13.057 27.4996 13.9982 27.4996 15.0006C27.4996 16.0031 27.1095 16.943 26.4019 17.6505ZM16.8727 20.6316C16.8727 21.6666 16.0325 22.5066 14.9973 22.5066C13.9622 22.5066 13.122 21.6666 13.122 20.6316C13.122 19.5967 13.9622 18.7567 14.9973 18.7567C16.0325 18.7567 16.8727 19.5967 16.8727 20.6316ZM13.7471 15.6318V8.75714C13.7471 8.06591 14.3072 7.50719 14.9973 7.50719C15.6875 7.50719 16.2476 8.06591 16.2476 8.75714V15.6318C16.2476 16.3231 15.6875 16.8818 14.9973 16.8818C14.3072 16.8818 13.7471 16.3231 13.7471 15.6318Z" fill="#888888"/>
</svg>
