<svg width="17" height="14" viewBox="0 0 17 14" fill="none" xmlns="http://www.w3.org/2000/svg">
<path d="M15.7325 1.37854L15.5952 1.2442C14.7755 0.442137 13.6853 0 12.5254 0C11.3654 0 10.2752 0.442137 9.45549 1.2442L8.50154 2.1776L7.54759 1.2442C6.72787 0.442137 5.63764 0 4.47773 0C3.31783 0 2.2276 0.442137 1.40788 1.2442L1.26954 1.37854C-0.423181 3.0348 -0.423181 5.72974 1.26954 7.38599L7.69514 13.6732C7.91749 13.8907 8.20849 14 8.50052 14C8.79254 14 9.08252 13.8917 9.30487 13.6732L15.7305 7.38599C17.4232 5.72974 17.4232 3.0348 15.7305 1.37854H15.7325Z" fill="#7954C6"/>
</svg>
