<svg width="18" height="15" viewBox="0 0 18 15" fill="none" xmlns="http://www.w3.org/2000/svg">
<path d="M16.2325 1.87854L16.0952 1.7442C15.2755 0.942137 14.1853 0.5 13.0254 0.5C11.8654 0.5 10.7752 0.942137 9.95549 1.7442L9.00154 2.6776L8.04759 1.7442C7.22787 0.942137 6.13764 0.5 4.97773 0.5C3.81783 0.5 2.7276 0.942137 1.90788 1.7442L1.76954 1.87854C0.0768188 3.5348 0.0768188 6.22974 1.76954 7.88599L8.19514 14.1732C8.41749 14.3907 8.70849 14.5 9.00052 14.5C9.29254 14.5 9.58252 14.3917 9.80487 14.1732L16.2305 7.88599C17.9232 6.22974 17.9232 3.5348 16.2305 1.87854H16.2325Z" fill="white" stroke="#7954C6"/>
</svg>
