<svg width="14" height="14" viewBox="0 0 14 14" fill="none" xmlns="http://www.w3.org/2000/svg">
<path d="M6.10189 0.434789C6.49909 -0.144784 7.35442 -0.144785 7.75163 0.434788L9.5471 3.05459C9.67713 3.24433 9.86859 3.38343 10.0892 3.44847L13.1356 4.34649C13.8096 4.54516 14.0739 5.35863 13.6454 5.91549L11.7087 8.43265C11.5684 8.61495 11.4953 8.84002 11.5016 9.06995L11.5889 12.2448C11.6082 12.9471 10.9163 13.4499 10.2543 13.2145L7.26181 12.1503C7.04509 12.0733 6.80843 12.0733 6.59171 12.1503L3.59926 13.2145C2.93725 13.4499 2.24527 12.9471 2.26459 12.2448L2.35191 9.06995C2.35823 8.84002 2.2851 8.61495 2.14484 8.43265L0.208086 5.91549C-0.220376 5.35863 0.0439342 4.54516 0.717884 4.34649L3.7643 3.44847C3.98492 3.38343 4.17639 3.24433 4.30642 3.05459L6.10189 0.434789Z" fill="#FFCC00"/>
</svg>
