<svg width="25" height="25" viewBox="0 0 25 25" fill="none" xmlns="http://www.w3.org/2000/svg">
<path d="M10.843 20.4203C9.18883 22.1394 6.49488 22.2979 4.65128 20.7847C3.55332 19.832 2.99247 18.3996 3.151 16.9528C3.28828 15.8862 3.78573 14.8987 4.56063 14.1546L7.55704 11.1497C8.16711 10.5381 8.16711 9.5467 7.55704 8.93511C6.94677 8.32371 5.95752 8.32371 5.34725 8.93511L2.41444 11.8753C1.07757 13.1673 0.234491 14.8877 0.0316704 16.7377C-0.34716 20.9046 2.71635 24.5903 6.87425 24.97C9.10713 25.1739 11.3152 24.3739 12.9017 22.7862L16.0357 19.6466C16.6457 19.035 16.6457 18.0436 16.0357 17.4321C15.4254 16.8207 14.4361 16.8207 13.8259 17.4321L10.843 20.4203Z" fill="#2BACF4"/>
<path d="M22.0465 1.50488C18.9352 -0.785937 14.6148 -0.426795 11.9227 2.34645L8.97318 5.30337C8.36311 5.91496 8.36311 6.90635 8.97318 7.51793C9.58345 8.12933 10.5727 8.12933 11.183 7.51793L14.1794 4.51819C15.7974 2.84106 18.4154 2.65214 20.2565 4.07966C22.1515 5.63692 22.4281 8.43884 20.8742 10.338C20.7833 10.4491 20.687 10.5558 20.5857 10.6576L17.4518 13.7983C16.8417 14.4099 16.8417 15.4012 17.4518 16.0128C18.0621 16.6242 19.0513 16.6242 19.6616 16.0128L22.7955 12.8721C25.7459 9.9059 25.7383 5.10437 22.7785 2.14759C22.5485 1.91786 22.304 1.70319 22.0465 1.50488Z" fill="#2BACF4"/>
<path d="M8.97336 13.8014L13.829 8.93529C14.4393 8.32365 15.4288 8.32365 16.0391 8.93529C16.6494 9.54693 16.6494 10.5386 16.0391 11.1502L11.1835 16.0163C10.5732 16.628 9.58368 16.628 8.97336 16.0163C8.36305 15.4047 8.36305 14.4131 8.97336 13.8014Z" fill="#2BACF4"/>
</svg>
