<svg width="20" height="20" viewBox="0 0 20 20" fill="none" xmlns="http://www.w3.org/2000/svg">
<g clip-path="url(#clip0_31_12542)">
<path d="M10 8.33345C10.9167 8.33345 11.6667 9.08345 11.6667 10.0001C11.6667 10.9168 10.9167 11.6668 10 11.6668C9.08337 11.6668 8.33337 10.9168 8.33337 10.0001C8.33337 9.08345 9.08337 8.33345 10 8.33345ZM17.075 17.0751C20.975 13.1751 20.975 6.83345 17.075 2.93345C16.75 2.60845 16.225 2.60845 15.9 2.93345C15.575 3.25845 15.575 3.78345 15.9 4.10845C19.15 7.35845 19.15 12.6418 15.9 15.8918C15.575 16.2168 15.575 16.7418 15.9 17.0668C16.0667 17.2334 16.275 17.3084 16.4917 17.3084C16.7084 17.3084 16.9167 17.2251 17.0834 17.0668L17.075 17.0751ZM14.125 14.1251C15.225 13.0251 15.8334 11.5584 15.8334 10.0001C15.8334 8.44178 15.225 6.97511 14.125 5.87511C13.8 5.55011 13.275 5.55011 12.95 5.87511C12.625 6.20011 12.625 6.72511 12.95 7.05011C13.7334 7.83345 14.1667 8.88345 14.1667 10.0001C14.1667 11.1168 13.7334 12.1584 12.95 12.9501C12.625 13.2751 12.625 13.8001 12.95 14.1251C13.1167 14.2918 13.325 14.3668 13.5417 14.3668C13.7584 14.3668 13.9667 14.2834 14.1334 14.1251H14.125ZM4.10837 17.0751C4.43337 16.7501 4.43337 16.2251 4.10837 15.9001C0.858366 12.6501 0.858366 7.36678 4.10837 4.11678C4.43337 3.79178 4.43337 3.26678 4.10837 2.94178C3.78337 2.61678 3.25837 2.61678 2.93337 2.94178C-0.966633 6.82511 -0.966633 13.1751 2.92503 17.0751C3.0917 17.2418 3.30003 17.3168 3.5167 17.3168C3.73337 17.3168 3.9417 17.2334 4.10837 17.0751ZM7.05837 14.1251C7.38337 13.8001 7.38337 13.2751 7.05837 12.9501C5.43337 11.3251 5.43337 8.68345 7.05837 7.05845C7.38337 6.73345 7.38337 6.20845 7.05837 5.88345C6.73337 5.55845 6.20837 5.55845 5.88337 5.88345C3.60837 8.15845 3.60837 11.8584 5.88337 14.1334C6.05003 14.3001 6.25837 14.3751 6.47503 14.3751C6.6917 14.3751 6.90003 14.2918 7.0667 14.1334L7.05837 14.1251Z" fill="white"/>
</g>
<defs>
<clipPath id="clip0_31_12542">
<rect width="20" height="20" fill="white"/>
</clipPath>
</defs>
</svg>
