<svg width="12" height="12" viewBox="0 0 12 12" fill="none" xmlns="http://www.w3.org/2000/svg">
<g clip-path="url(#clip0_103_1824)">
<path d="M8.923 7.1085L6.7265 6.1625C6.258 5.961 5.7205 5.961 5.2525 6.1635L3.07 7.1085C2.7085 7.265 2.484 7.607 2.4835 8.0005C2.483 8.394 2.707 8.7365 3.0675 8.894L4 9.301V10.597C4 11.084 4.285 11.53 4.727 11.7335C5.1115 11.9105 5.5395 12 6 12C6.4605 12 6.8885 11.91 7.274 11.7335C7.715 11.53 8 11.0835 8 10.597V9.297L8.5 9.08V10.5005C8.5 10.777 8.7235 11.0005 9 11.0005C9.2765 11.0005 9.5 10.777 9.5 10.5005C9.5 10.5005 9.5 8.027 9.5 8.0005C9.5 7.612 9.2795 7.2615 8.923 7.109V7.1085ZM5.65 7.0815C5.866 6.9875 6.115 6.9875 6.331 7.0805L8.506 7.969C8.506 7.976 8.5025 7.9815 8.502 7.9885L6.3345 8.93C6.1165 9.0245 5.8665 9.0245 5.6485 8.929L3.467 8.0265L5.6495 7.0815H5.65ZM7 10.5965C7 10.696 6.9445 10.784 6.8555 10.825C6.3505 11.0565 5.649 11.0565 5.145 10.825C5.0555 10.784 5 10.696 5 10.5965V9.737L5.249 9.8455C5.4855 9.9485 5.739 10 5.993 10C6.2455 10 6.498 9.949 6.7335 9.8465L7 9.7305V10.5965ZM3.5 2.25C3.5 2.664 3.164 3 2.75 3C2.336 3 2 2.664 2 2.25C2 1.836 2.336 1.5 2.75 1.5C3.164 1.5 3.5 1.836 3.5 2.25ZM5.5 2.25C5.5 2.664 5.164 3 4.75 3C4.336 3 4 2.664 4 2.25C4 1.836 4.336 1.5 4.75 1.5C5.164 1.5 5.5 1.836 5.5 2.25ZM9.5 0H2.5C1.1215 0 0 1.1215 0 2.5V8.5C0 9.8785 1.1215 11 2.5 11C2.776 11 3 10.7765 3 10.5C3 10.2235 2.776 10 2.5 10C1.673 10 1 9.327 1 8.5V4.5H11V8.5C11 8.8655 10.867 9.218 10.6255 9.4915C10.443 9.6985 10.4625 10.0145 10.67 10.197C10.876 10.3795 11.1925 10.3605 11.3755 10.1525C11.7785 9.6965 12 9.109 12 8.4995V2.5C12 1.1215 10.8785 0 9.5 0ZM1 3.5V2.5C1 1.673 1.673 1 2.5 1H9.5C10.327 1 11 1.673 11 2.5V3.5H1Z" fill="#BBBBBB"/>
</g>
<defs>
<clipPath id="clip0_103_1824">
<rect width="12" height="12" fill="white"/>
</clipPath>
</defs>
</svg>
