<svg width="90" height="90" viewBox="0 0 90 90" fill="none" xmlns="http://www.w3.org/2000/svg">
<g clip-path="url(#clip0_119_12232)">
<path d="M89.8987 84.5962L66.54 61.2375C71.835 54.7687 75.0225 46.5112 75.0225 37.5225C75.0225 16.845 58.2 0.0224609 37.5225 0.0224609C16.845 0.0224609 0.0224609 16.845 0.0224609 37.5225C0.0224609 58.2 16.845 75.0225 37.5225 75.0225C46.515 75.0225 54.7725 71.835 61.2375 66.54L84.5962 89.8987L89.8987 84.5962ZM37.5225 67.5225C20.9812 67.5225 7.52246 54.0637 7.52246 37.5225C7.52246 20.9812 20.9812 7.52246 37.5225 7.52246C54.0637 7.52246 67.5225 20.9812 67.5225 37.5225C67.5225 54.0637 54.0637 67.5225 37.5225 67.5225Z" fill="#555555"/>
<path d="M28 29L46 47" stroke="#555555" stroke-width="6" stroke-linecap="round" stroke-linejoin="round"/>
<path d="M46 29L28 47" stroke="#555555" stroke-width="6" stroke-linecap="round" stroke-linejoin="round"/>
</g>
<defs>
<clipPath id="clip0_119_12232">
<rect width="90" height="90" fill="white"/>
</clipPath>
</defs>
</svg>
