<svg width="15" height="15" viewBox="0 0 15 15" fill="none" xmlns="http://www.w3.org/2000/svg">
<g clip-path="url(#clip0_120_15396)">
<path d="M2.37499 5.09596C3.34903 3.80726 4.7645 2.92348 6.34999 2.61408C6.14463 2.39069 6.00876 2.11234 5.95898 1.81301C5.90919 1.51368 5.94764 1.20633 6.06963 0.928488C6.19162 0.650648 6.39187 0.41434 6.64593 0.248418C6.89999 0.0824959 7.19686 -0.00585937 7.5003 -0.00585938C7.80374 -0.00585938 8.10062 0.0824959 8.35468 0.248418C8.60874 0.41434 8.80899 0.650648 8.93098 0.928488C9.05297 1.20633 9.09141 1.51368 9.04163 1.81301C8.99184 2.11234 8.85597 2.39069 8.65061 2.61408C10.2367 2.92034 11.6528 3.804 12.625 5.09409C11.7282 5.55451 10.9952 6.28045 10.5262 7.17284C10.1798 6.69393 9.72466 6.30404 9.19826 6.03516C8.67187 5.76628 8.0892 5.62608 7.49812 5.62608C6.90702 5.62608 6.32436 5.76628 5.79797 6.03516C5.27157 6.30404 4.81646 6.69393 4.46999 7.17284C4.00171 6.28168 3.27018 5.55648 2.37499 5.09596ZM13.4056 12.501L15.0106 5.66471C12.7669 5.90533 11.25 7.36159 11.25 9.37596H9.99999C9.99999 8.71292 9.7366 8.07703 9.26776 7.60819C8.79892 7.13935 8.16303 6.87596 7.49999 6.87596C6.83695 6.87596 6.20106 7.13935 5.73222 7.60819C5.26338 8.07703 4.99999 8.71292 4.99999 9.37596H3.74999C3.74999 7.36159 2.23312 5.90533 -0.0100098 5.66471L1.59437 12.501H13.4056ZM1.24999 15.001H13.75V13.751H1.24999V15.001Z" fill="url(#paint0_linear_120_15396)"/>
</g>
<defs>
<linearGradient id="paint0_linear_120_15396" x1="7.5003" y1="-0.00585938" x2="7.5003" y2="15.001" gradientUnits="userSpaceOnUse">
<stop stop-color="#7954C6"/>
<stop offset="1" stop-color="#FC5758"/>
</linearGradient>
<clipPath id="clip0_120_15396">
<rect width="15" height="15" fill="white"/>
</clipPath>
</defs>
</svg>
