<svg width="20" height="20" viewBox="0 0 20 20" fill="none" xmlns="http://www.w3.org/2000/svg">
<g clip-path="url(#clip0_31_12676)">
<path d="M10 0C4.47715 0 0 4.47715 0 10C0 15.5229 4.47715 20 10 20C15.5229 20 20 15.5229 20 10C20 4.47715 15.5229 0 10 0ZM12.554 12.8473C12.554 12.9434 12.5158 13.0354 12.448 13.1033C12.3801 13.1712 12.288 13.2094 12.192 13.2094H6.06035C5.58574 13.2094 5.13056 13.0208 4.79496 12.6852C4.45936 12.3496 4.27082 11.8945 4.27082 11.4198V7.15266C4.27082 7.05664 4.30896 6.96456 4.37686 6.89666C4.44475 6.82877 4.53683 6.79062 4.63285 6.79062H10.7645C11.2391 6.79062 11.6943 6.97916 12.0299 7.31476C12.3654 7.65035 12.554 8.10551 12.554 8.58012V12.8473ZM15.7292 12.9737C15.7292 13.0039 15.7209 13.0336 15.7051 13.0594C15.6894 13.0852 15.6669 13.1062 15.64 13.1201C15.6132 13.134 15.583 13.1402 15.5529 13.1381C15.5227 13.136 15.4937 13.1256 15.4691 13.1082L12.8653 11.2631V8.73684L15.4691 6.8918C15.4937 6.87433 15.5227 6.86397 15.5529 6.86187C15.583 6.85977 15.6132 6.86601 15.64 6.87989C15.6669 6.89377 15.6894 6.91477 15.7051 6.94059C15.7209 6.96641 15.7292 6.99606 15.7292 7.02629V12.9737Z" fill="#DDDDDD"/>
</g>
<defs>
<clipPath id="clip0_31_12676">
<rect width="20" height="20" fill="white"/>
</clipPath>
</defs>
</svg>
