<svg width="41" height="41" viewBox="0 0 41 41" fill="none" xmlns="http://www.w3.org/2000/svg">
<path d="M18.7917 25.6243H22.2084V29.041H18.7917V25.6243ZM18.7917 11.9577H22.2084V22.2077H18.7917V11.9577ZM20.4829 3.41602C11.0529 3.41602 3.41669 11.0693 3.41669 20.4993C3.41669 29.9293 11.0529 37.5827 20.4829 37.5827C29.93 37.5827 37.5834 29.9293 37.5834 20.4993C37.5834 11.0693 29.93 3.41602 20.4829 3.41602ZM20.5 34.166C12.9492 34.166 6.83335 28.0502 6.83335 20.4993C6.83335 12.9485 12.9492 6.83268 20.5 6.83268C28.0509 6.83268 34.1667 12.9485 34.1667 20.4993C34.1667 28.0502 28.0509 34.166 20.5 34.166Z" fill="white"/>
</svg>
