<svg width="15" height="14" viewBox="0 0 15 14" fill="none" xmlns="http://www.w3.org/2000/svg">
<mask id="mask0_31_12662" style="mask-type:luminance" maskUnits="userSpaceOnUse" x="0" y="0" width="15" height="14">
<path d="M14.9342 0H0V13.5768H14.9342V0Z" fill="white"/>
</mask>
<g mask="url(#mask0_31_12662)">
<path d="M8.45068 6.78782L9.90684 8.62676L11.8651 10.0091L12.2069 6.80031L11.8651 3.66309L9.86936 4.87731L8.45068 6.78895V6.78782Z" fill="#EDEDED"/>
<path d="M0.00292969 9.71214V12.4461C0.00292969 13.0709 0.460677 13.5774 1.02747 13.5774H3.50249L4.01476 11.5113L3.50249 9.71214L1.80439 9.14648L0.00406492 9.71214H0.00292969Z" fill="#DDDDDD"/>
<path d="M3.50136 0.0012207L0.00292969 3.86652L1.80326 4.43218L3.50136 3.86652L4.00454 2.09232L3.50136 0.0012207Z" fill="#E6E6E6"/>
<path d="M3.50136 3.86353H0.00292969V9.70863H3.50136V3.86353Z" fill="#EEEEEE"/>
<path d="M14.0968 1.63467L11.8615 3.65989V10.007L14.1071 12.0413C14.4433 12.3321 14.9351 12.0663 14.9351 11.595V2.0731C14.9351 1.59491 14.4319 1.33253 14.0968 1.6358V1.63467ZM8.44712 6.78576V9.70831H3.49707V13.5736H10.8358C11.4015 13.5736 11.8604 13.067 11.8604 12.4423V10.0059L8.44712 6.78576Z" fill="#CCCCCC"/>
<path d="M10.8358 0.00235766H3.49707V3.86766H8.44711V6.79021L11.8604 3.66548V1.13253C11.8604 0.507807 11.4026 0.0012207 10.8358 0.0012207V0.00235766Z" fill="#E1E1E1"/>
</g>
</svg>
