<svg width="16" height="13" viewBox="0 0 16 13" fill="none" xmlns="http://www.w3.org/2000/svg">
<path d="M14.4014 0C14.8248 9.44693e-05 15.2339 0.170637 15.5332 0.474609C15.8325 0.778634 16 1.19399 16 1.62402V4.87598C15.5766 4.87606 15.1675 5.04661 14.8682 5.35059C14.5688 5.65461 14.4014 6.06995 14.4014 6.5C14.4014 6.93003 14.5689 7.34538 14.8682 7.64941C15.1675 7.95339 15.5766 8.12394 16 8.12402V11.376C16 11.806 15.8325 12.2214 15.5332 12.5254C15.2339 12.8294 14.8248 12.9999 14.4014 13H1.59961C1.17608 13 0.76718 12.8294 0.467773 12.5254C0.168361 12.2213 0 11.8061 0 11.376V8.12402C0.423559 8.12402 0.832423 7.95347 1.13184 7.64941C1.43121 7.34536 1.59961 6.9301 1.59961 6.5C1.59957 6.06992 1.43122 5.65461 1.13184 5.35059C0.83243 5.04658 0.423523 4.87598 0 4.87598V1.62402C2.27871e-05 1.19393 0.168381 0.778646 0.467773 0.474609C0.767168 0.170682 1.17615 0 1.59961 0H14.4014ZM1.59961 1.29785C1.51563 1.29785 1.43512 1.3315 1.37305 1.39453C1.31106 1.45383 1.27834 1.53511 1.27832 1.62402V3.87891C1.55201 4.01608 1.80791 4.20089 2.03418 4.43066C2.57816 4.97937 2.87687 5.71753 2.87695 6.49609C2.87695 7.27463 2.57804 8.00907 2.03418 8.56152C1.81152 8.78764 1.55572 8.97337 1.27832 9.11426V11.3691C1.27843 11.4543 1.31471 11.5357 1.37305 11.5986C1.43146 11.6616 1.512 11.6953 1.59961 11.6953H14.4014C14.4851 11.6952 14.565 11.6614 14.627 11.5986C14.6889 11.5394 14.7226 11.458 14.7227 11.3691V9.11426C14.4488 8.97706 14.1932 8.79141 13.9668 8.56152C13.4227 8.01274 13.123 7.27478 13.123 6.49609C13.1231 5.71753 13.4228 4.98308 13.9668 4.43066C14.1895 4.20463 14.4453 4.01974 14.7227 3.87891V1.62402C14.7226 1.53877 14.689 1.45755 14.627 1.39453C14.5686 1.33161 14.4888 1.29794 14.4014 1.29785H1.59961ZM10.2227 7.38379C10.8249 7.384 11.3105 7.87332 11.3105 8.47754C11.3105 8.76673 11.1976 9.04529 10.9932 9.25293C10.7887 9.45674 10.5103 9.5752 10.2256 9.5752C9.62347 9.5748 9.13774 9.08557 9.1377 8.48145C9.1377 8.19233 9.25075 7.91368 9.45508 7.70605C9.65945 7.50222 9.938 7.38391 10.2227 7.38379ZM10.9902 4.55762L6.35352 9.2666L5.53516 8.43555L10.1719 3.72656L10.9902 4.55762ZM6.30566 3.40625C6.90795 3.40628 7.3933 3.89917 7.39355 4.51074C7.39355 4.80368 7.28065 5.0861 7.07617 5.29004C6.87179 5.49747 6.59417 5.61222 6.30957 5.6123C5.70739 5.61207 5.22086 5.11936 5.2207 4.50781C5.2207 4.21498 5.33472 3.93244 5.53906 3.72852C5.74341 3.52115 6.02114 3.40636 6.30566 3.40625Z" fill="#555555"/>
</svg>
