<svg width="15" height="15" viewBox="0 0 15 15" fill="none" xmlns="http://www.w3.org/2000/svg">
<g clip-path="url(#clip0_31_10230)">
<path d="M8.0144 5.5518L7.83065 5.69867C7.63377 5.85555 7.35315 5.85617 7.15565 5.69992L6.96815 5.5518C6.3269 5.0443 5.88565 4.4993 5.65627 3.9318C5.58877 3.7643 5.60877 3.5743 5.7094 3.42492C5.81065 3.27555 5.97877 3.18555 6.1594 3.18555H7.4919H8.82377C9.0044 3.18555 9.17315 3.27555 9.27377 3.42492C9.3744 3.5743 9.3944 3.7643 9.3269 3.9318C9.09815 4.4968 8.65627 5.0418 8.0144 5.5518ZM13.095 11.953C13.2113 12.7255 12.9825 13.5112 12.4694 14.1074C11.9481 14.7124 11.1925 15.0593 10.395 15.0593H4.60502C3.80815 15.0593 3.0519 14.7118 2.53127 14.1074C2.0169 13.5099 1.78877 12.7243 1.90502 11.9499C2.14377 10.3612 2.97002 8.88805 4.36502 7.5593C2.97002 6.23117 2.14377 4.75805 1.90502 3.16867C1.78877 2.39492 2.0169 1.60867 2.53127 1.0118C3.0519 0.407422 3.80815 0.0605469 4.60502 0.0605469H10.395C11.1919 0.0605469 11.9481 0.407422 12.4694 1.0118C12.9831 1.60867 13.2113 2.39367 13.095 3.1668C12.8581 4.75117 12.0313 6.22555 10.6325 7.55992C12.0313 8.89492 12.8588 10.368 13.095 11.953ZM11.2406 12.2305C11.0319 10.8343 10.15 9.5093 8.62127 8.29305C8.39752 8.11555 8.26752 7.84492 8.26752 7.5593C8.26752 7.27367 8.39752 7.00305 8.62127 6.82555C10.1506 5.6093 11.0319 4.28492 11.2406 2.88867C11.2881 2.56992 11.1406 2.3418 11.0481 2.23492C10.8838 2.04367 10.6456 1.9343 10.395 1.9343H4.60502C4.3544 1.9343 4.11627 2.0443 3.9519 2.23492C3.8594 2.34242 3.71127 2.57055 3.7594 2.88992C3.97002 4.29242 4.85127 5.61617 6.37752 6.82367C6.6019 7.00117 6.73315 7.27242 6.73315 7.55867C6.73315 7.84492 6.6019 8.11617 6.37752 8.29367C4.85127 9.5018 3.97002 10.8249 3.7594 12.2274C3.71127 12.5474 3.8594 12.7749 3.95252 12.8824C4.1169 13.0737 4.35502 13.183 4.60565 13.183H10.3956C10.6463 13.183 10.8844 13.0737 11.0488 12.883C11.1413 12.7762 11.2888 12.548 11.2413 12.2299L11.2406 12.2305Z" fill="#888888"/>
</g>
<defs>
<clipPath id="clip0_31_10230">
<rect width="15" height="15" fill="white"/>
</clipPath>
</defs>
</svg>
