<svg width="15" height="15" viewBox="0 0 15 15" fill="none" xmlns="http://www.w3.org/2000/svg">
<path d="M13.0894 2.57573C12.9869 1.76386 12.3563 1.10261 11.5556 0.966982C8.86377 0.511982 6.13565 0.511982 3.44377 0.966982C2.64315 1.10198 2.01252 1.76386 1.91002 2.57636C1.5094 5.78011 1.49377 9.02823 1.8644 12.2307C1.91252 12.6482 2.13752 13.0326 2.4794 13.2832C2.73002 13.4676 2.97877 13.6526 3.22502 13.8364C3.71065 14.1995 4.36252 14.2414 4.88377 13.9439C5.10002 13.8207 5.3194 13.6926 5.54127 13.5601C5.64002 13.5001 5.76565 13.5039 5.86127 13.5695L6.64002 14.1082C6.90002 14.2876 7.19815 14.377 7.49502 14.377C7.7919 14.377 8.09002 14.2876 8.34877 14.1089L9.1294 13.5695C9.22315 13.5045 9.34752 13.5007 9.44815 13.5601C9.6719 13.6932 9.89315 13.822 10.1106 13.9457C10.6325 14.2426 11.2825 14.2001 11.7675 13.8389C12.0156 13.6539 12.2663 13.4682 12.5175 13.2832C12.8613 13.032 13.0863 12.6476 13.1344 12.2289C13.505 9.02698 13.4888 5.77948 13.0888 2.57573H13.0894ZM11.8938 12.0857C11.885 12.1582 11.8431 12.2289 11.7794 12.2751C11.5244 12.4626 11.2719 12.6501 11.0206 12.8364C10.9331 12.902 10.8194 12.9101 10.7288 12.8595C10.5181 12.7395 10.3044 12.6151 10.0888 12.4864C9.56815 12.1764 8.9119 12.1982 8.41627 12.5432L7.64002 13.0801C7.55002 13.142 7.4394 13.142 7.3494 13.0801L6.5744 12.5439C6.07877 12.1995 5.42127 12.177 4.90002 12.4876C4.68627 12.6157 4.47377 12.7395 4.26502 12.8589C4.1744 12.9101 4.06002 12.9007 3.9719 12.8351C3.72315 12.6495 3.4719 12.4626 3.21877 12.2757C3.15565 12.2301 3.11377 12.1595 3.10502 12.087C2.7469 8.98386 2.76127 5.83636 3.1494 2.73198C3.18377 2.46261 3.39002 2.24386 3.6519 2.19948C6.2044 1.76886 8.79377 1.76886 11.3463 2.19948C11.6081 2.24386 11.8144 2.46261 11.8488 2.73136C12.2369 5.83573 12.2519 8.98323 11.8931 12.0857H11.8938Z" fill="#555555"/>
<path d="M9.6875 3.63623H5.3125C4.96688 3.63623 4.6875 3.91623 4.6875 4.26123C4.6875 4.60623 4.96688 4.88623 5.3125 4.88623H9.6875C10.0331 4.88623 10.3125 4.60623 10.3125 4.26123C10.3125 3.91623 10.0331 3.63623 9.6875 3.63623Z" fill="#555555"/>
<path d="M9.6875 6.24927H5.3125C4.96688 6.24927 4.6875 6.52927 4.6875 6.87427C4.6875 7.21927 4.96688 7.49927 5.3125 7.49927H9.6875C10.0331 7.49927 10.3125 7.21927 10.3125 6.87427C10.3125 6.52927 10.0331 6.24927 9.6875 6.24927Z" fill="#555555"/>
<path d="M7.59938 8.86255H5.3125C4.96688 8.86255 4.6875 9.14255 4.6875 9.48755C4.6875 9.83255 4.96688 10.1125 5.3125 10.1125H7.59938C7.945 10.1125 8.22438 9.83255 8.22438 9.48755C8.22438 9.14255 7.945 8.86255 7.59938 8.86255Z" fill="#555555"/>
</svg>
