<svg width="15" height="15" viewBox="0 0 15 15" fill="none" xmlns="http://www.w3.org/2000/svg">
<path d="M14.3669 3.40753C14.3494 3.29691 14.1719 2.30316 13.4519 1.57753C12.7288 0.870032 11.7313 0.695032 11.62 0.677532C11.4719 0.653157 11.3206 0.684407 11.1938 0.763157C11.1494 0.790657 10.4975 1.19878 9.21063 2.28691C9.87251 2.52066 10.7281 2.92628 11.4219 3.60503C12.1181 4.28628 12.5344 5.12441 12.7731 5.77441C13.8481 4.51816 14.2525 3.88191 14.2794 3.83816C14.3594 3.71003 14.3906 3.55691 14.3669 3.40753Z" fill="#555555"/>
<path d="M8.09375 3.2644C7.42312 3.8694 6.6425 4.6044 5.74875 5.4919C1.95937 9.2544 0.965622 10.7588 0.924997 10.8207C0.868122 10.9082 0.833747 11.0088 0.825622 11.1125L0.626247 13.6569C0.612497 13.8394 0.678122 14.0182 0.807497 14.1475C0.924997 14.265 1.08437 14.3307 1.25 14.3307C1.26562 14.3307 1.28187 14.3307 1.29812 14.3288L3.86125 14.1313C3.96437 14.1232 4.06375 14.09 4.15062 14.0344C4.21312 13.9944 5.7275 13.0075 9.51625 9.24565C10.43 8.33815 11.1837 7.54815 11.8006 6.87253C11.7062 6.4669 11.3769 5.3094 10.5475 4.49878C9.70625 3.67565 8.49625 3.35315 8.09375 3.2644Z" fill="#555555"/>
</svg>
