<svg width="15" height="15" viewBox="0 0 15 15" fill="none" xmlns="http://www.w3.org/2000/svg">
<g clip-path="url(#clip0_119_12878)">
<path d="M14.2269 6.39502L11.1331 3.30127L10.25 4.18752L12.9375 6.87502H4.13562V8.12502H12.9375L10.25 10.8125L11.1337 11.6963L14.2275 8.60252C14.3726 8.45742 14.4878 8.28516 14.5663 8.09556C14.6449 7.90596 14.6853 7.70275 14.6853 7.49752C14.6853 7.29229 14.6449 7.08908 14.5663 6.89948C14.4878 6.70988 14.3726 6.53762 14.2275 6.39252L14.2269 6.39502Z" fill="#888888"/>
<path d="M6.5475 13.125C6.5475 13.2908 6.48165 13.4497 6.36444 13.5669C6.24723 13.6842 6.08826 13.75 5.9225 13.75H1.875C1.70924 13.75 1.55027 13.6842 1.43306 13.5669C1.31585 13.4497 1.25 13.2908 1.25 13.125V1.875C1.25 1.70924 1.31585 1.55027 1.43306 1.43306C1.55027 1.31585 1.70924 1.25 1.875 1.25H5.9225C6.08826 1.25 6.24723 1.31585 6.36444 1.43306C6.48165 1.55027 6.5475 1.70924 6.5475 1.875V5.20813H7.7975V1.875C7.7975 1.37772 7.59996 0.900805 7.24833 0.549175C6.89669 0.197544 6.41978 0 5.9225 0L1.875 0C1.37772 0 0.900805 0.197544 0.549175 0.549175C0.197544 0.900805 0 1.37772 0 1.875L0 13.125C0 13.6223 0.197544 14.0992 0.549175 14.4508C0.900805 14.8025 1.37772 15 1.875 15H5.9225C6.41978 15 6.89669 14.8025 7.24833 14.4508C7.59996 14.0992 7.7975 13.6223 7.7975 13.125V9.79187H6.5475V13.125Z" fill="#888888"/>
</g>
<defs>
<clipPath id="clip0_119_12878">
<rect width="15" height="15" fill="white"/>
</clipPath>
</defs>
</svg>
