<svg width="15" height="15" viewBox="0 0 15 15" fill="none" xmlns="http://www.w3.org/2000/svg">
<g clip-path="url(#clip0_32_15359)">
<path d="M12.5 3.12544H11.6031C11.7288 2.90169 11.8169 2.65669 11.8538 2.39481C11.9331 1.83981 11.7913 1.28794 11.4556 0.839814C11.1194 0.391064 10.6287 0.100439 10.0737 0.0210636C9.52063 -0.0570614 8.96688 0.0835636 8.51875 0.419189C8.08375 0.745439 7.7525 1.16669 7.5 1.59544C7.2475 1.16731 6.91625 0.745439 6.48125 0.419814C6.03312 0.0835636 5.48063 -0.0564364 4.92625 0.0216886C4.37125 0.101064 3.88063 0.391689 3.545 0.839814C3.20875 1.28794 3.06687 1.84044 3.14625 2.39481C3.18375 2.65669 3.27125 2.90294 3.39563 3.12544H2.5C1.12125 3.12544 0 4.24669 0 5.62544V6.87544C0 7.56481 0.560625 8.12544 1.25 8.12544V11.8754C1.25 13.5986 2.65188 15.0004 4.375 15.0004H6.875C7.22062 15.0004 7.5 14.7204 7.5 14.3754C7.5 14.0304 7.22062 13.7504 6.875 13.7504H4.375C3.34125 13.7504 2.5 12.9092 2.5 11.8754V8.12544H9.375C9.72062 8.12544 10 7.84544 10 7.50044C10 7.15544 9.72062 6.87544 9.375 6.87544H1.25V5.62544C1.25 4.93606 1.81062 4.37544 2.5 4.37544H5.245C5.245 4.37544 5.2475 4.37544 5.24813 4.37544C5.24938 4.37544 5.25063 4.37544 5.25187 4.37544H9.74687C9.74687 4.37544 9.74938 4.37544 9.75062 4.37544C9.75187 4.37544 9.75313 4.37544 9.75375 4.37544H12.4987C13.1881 4.37544 13.7487 4.93606 13.7487 5.62544V6.87544C13.4031 6.87544 13.1237 7.15544 13.1237 7.50044C13.1237 7.84544 13.4031 8.12544 13.7487 8.12544C14.4381 8.12544 14.9987 7.56481 14.9987 6.87544V5.62544C14.9987 4.24669 13.8775 3.12544 12.4987 3.12544H12.5ZM9.26813 1.41981C9.44875 1.28419 9.67313 1.22606 9.89688 1.25919C10.1206 1.29106 10.3194 1.40856 10.4556 1.58981C10.5919 1.77106 10.6487 1.99419 10.6169 2.21794C10.585 2.44231 10.4675 2.64044 10.2663 2.79169C10.2431 2.80981 10.035 2.96544 9.63 3.12481H8.1875C8.32625 2.65169 8.65625 1.87856 9.26875 1.41919L9.26813 1.41981ZM4.71375 2.77669C4.53312 2.64044 4.415 2.44231 4.38375 2.21794C4.35187 1.99419 4.40875 1.77106 4.54562 1.58919C4.68125 1.40794 4.87938 1.29044 5.10375 1.25856C5.325 1.22606 5.55125 1.28356 5.7325 1.41981C6.345 1.87919 6.67438 2.65169 6.81375 3.12544H5.37125C4.96625 2.96606 4.75625 2.80919 4.715 2.77669H4.71375ZM14.965 10.3954C15.0475 10.6217 14.98 10.8754 14.7956 11.0304L13.44 12.1348L14.0006 13.8423C14.0775 14.0736 13.9994 14.3279 13.8062 14.4761C13.6131 14.6242 13.3475 14.6348 13.1438 14.5023L11.5662 13.4748L10.015 14.5129C9.91875 14.5773 9.8075 14.6098 9.69625 14.6098C9.575 14.6098 9.45438 14.5717 9.3525 14.4954C9.1575 14.3498 9.07687 14.0967 9.14937 13.8648L9.68813 12.1367L8.32625 11.0286C8.14312 10.8729 8.07625 10.6198 8.15938 10.3942C8.24188 10.1686 8.45687 10.0186 8.69687 10.0186H10.4163L11.025 8.31106C11.1081 8.08669 11.3225 7.93794 11.5619 7.93794C11.8013 7.93794 12.0156 8.08669 12.0988 8.31106L12.7075 10.0186H14.4269C14.6675 10.0186 14.8825 10.1698 14.965 10.3954Z" fill="url(#paint0_linear_32_15359)"/>
</g>
<defs>
<linearGradient id="paint0_linear_32_15359" x1="7.49988" y1="0" x2="7.49988" y2="15.0004" gradientUnits="userSpaceOnUse">
<stop stop-color="#7954C6"/>
<stop offset="1" stop-color="#FC5758"/>
</linearGradient>
<clipPath id="clip0_32_15359">
<rect width="15" height="15" fill="white"/>
</clipPath>
</defs>
</svg>
