<svg width="16" height="14" viewBox="0 0 16 14" fill="none" xmlns="http://www.w3.org/2000/svg">
<path d="M14.3816 1.78008L14.2605 1.65533C13.5372 0.910556 12.5752 0.5 11.5518 0.5C10.5283 0.5 9.56636 0.910556 8.84308 1.65533L8.00136 2.52206L7.15964 1.65533C6.43635 0.910556 5.47439 0.5 4.45094 0.5C3.4275 0.5 2.46553 0.910556 1.74225 1.65533L1.62019 1.78008C0.126605 3.31803 0.126605 5.82047 1.62019 7.35842L7.28983 13.1965C7.48602 13.3985 7.74279 13.5 8.00046 13.5C8.25813 13.5 8.51399 13.3995 8.71018 13.1965L14.3798 7.35842C15.8734 5.82047 15.8734 3.31803 14.3798 1.78008H14.3816Z" fill="white" stroke="#EEEEEE"/>
</svg>
