<svg width="15" height="13" viewBox="0 0 15 13" fill="none" xmlns="http://www.w3.org/2000/svg">
<path d="M13.8816 1.28008L13.7605 1.15533C13.0372 0.410556 12.0752 0 11.0518 0C10.0283 0 9.06636 0.410556 8.34308 1.15533L7.50136 2.02206L6.65964 1.15533C5.93635 0.410556 4.97439 0 3.95094 0C2.9275 0 1.96553 0.410556 1.24225 1.15533L1.12019 1.28008C-0.373395 2.81803 -0.373395 5.32047 1.12019 6.85842L6.78983 12.6965C6.98602 12.8985 7.24279 13 7.50046 13C7.75813 13 8.01399 12.8995 8.21018 12.6965L13.8798 6.85842C15.3734 5.32047 15.3734 2.81803 13.8798 1.28008H13.8816Z" fill="#555555"/>
</svg>
