<svg width="25" height="25" viewBox="0 0 25 25" fill="none" xmlns="http://www.w3.org/2000/svg">
<g clip-path="url(#clip0_14_3829)">
<path d="M22.6999 19.4826C22.3218 20.356 21.8743 21.16 21.3558 21.8992C20.649 22.9069 20.0703 23.6044 19.6244 23.9917C18.933 24.6275 18.1923 24.9531 17.3991 24.9716C16.8297 24.9716 16.143 24.8096 15.3436 24.4809C14.5416 24.1537 13.8046 23.9917 13.1307 23.9917C12.424 23.9917 11.666 24.1537 10.8552 24.4809C10.0432 24.8096 9.38904 24.9809 8.8889 24.9979C8.12827 25.0303 7.37012 24.6954 6.61335 23.9917C6.13034 23.5704 5.5262 22.8482 4.80245 21.8251C4.02594 20.7326 3.38753 19.4656 2.88739 18.0212C2.35176 16.4611 2.08325 14.9503 2.08325 13.4877C2.08325 11.8123 2.44528 10.3673 3.17041 9.15636C3.7403 8.18371 4.49845 7.41645 5.44734 6.85319C6.39623 6.28994 7.42151 6.00291 8.52564 5.98455C9.12979 5.98455 9.92205 6.17142 10.9066 6.5387C11.8883 6.9072 12.5187 7.09408 12.7951 7.09408C13.0017 7.09408 13.702 6.87557 14.8892 6.43993C16.0118 6.03593 16.9593 5.86865 17.7355 5.93455C19.8389 6.10429 21.4191 6.93344 22.4699 8.42722C20.5888 9.567 19.6583 11.1634 19.6768 13.2113C19.6938 14.8065 20.2725 16.1339 21.4098 17.1879C21.9252 17.6771 22.5008 18.0552 23.1412 18.3237C23.0023 18.7264 22.8557 19.1122 22.6999 19.4826ZM17.876 0.500143C17.876 1.75043 17.4192 2.91782 16.5087 3.99834C15.41 5.28287 14.081 6.02513 12.6399 5.908C12.6215 5.75801 12.6108 5.60014 12.6108 5.43425C12.6108 4.23398 13.1334 2.94945 14.0613 1.89917C14.5245 1.3674 15.1137 0.925238 15.8282 0.572516C16.5411 0.225057 17.2155 0.0329052 17.8497 0C17.8682 0.167144 17.876 0.334298 17.876 0.500126V0.500143Z" fill="white"/>
</g>
<defs>
<clipPath id="clip0_14_3829">
<rect width="25" height="25" fill="white"/>
</clipPath>
</defs>
</svg>
