<svg width="20" height="20" viewBox="0 0 20 20" fill="none" xmlns="http://www.w3.org/2000/svg">
<g clip-path="url(#clip0_31_10032)">
<path d="M3.16657 6.79266C4.46529 5.07439 6.35259 3.89602 8.46657 3.48349C8.19276 3.18564 8.01161 2.81449 7.94522 2.41539C7.87884 2.01628 7.9301 1.60649 8.09276 1.23603C8.25541 0.865578 8.52241 0.5505 8.86115 0.329271C9.1999 0.108041 9.59573 -0.00976562 10.0003 -0.00976562C10.4049 -0.00976563 10.8007 0.108041 11.1395 0.329271C11.4782 0.5505 11.7452 0.865578 11.9079 1.23603C12.0705 1.60649 12.1218 2.01628 12.0554 2.41539C11.989 2.81449 11.8079 3.18564 11.5341 3.48349C13.6488 3.89183 15.537 5.07004 16.8332 6.79016C15.6375 7.40406 14.6602 8.37198 14.0349 9.56183C13.5729 8.92329 12.9661 8.40343 12.2643 8.04492C11.5624 7.68641 10.7855 7.49949 9.99741 7.49949C9.20929 7.49949 8.4324 7.68641 7.73054 8.04492C7.02868 8.40343 6.42186 8.92329 5.95991 9.56183C5.33553 8.37362 4.36016 7.40669 3.16657 6.79266ZM17.8741 16.666L20.0141 7.55099C17.0224 7.87183 14.9999 9.81349 14.9999 12.4993H13.3332C13.3332 11.6153 12.982 10.7674 12.3569 10.1423C11.7318 9.51718 10.884 9.16599 9.99991 9.16599C9.11585 9.16599 8.268 9.51718 7.64288 10.1423C7.01776 10.7674 6.66657 11.6153 6.66657 12.4993H4.99991C4.99991 9.81349 2.97741 7.87183 -0.0134277 7.55099L2.12574 16.666H17.8741ZM1.66657 19.9993H18.3332V18.3327H1.66657V19.9993Z" fill="#333333"/>
</g>
<defs>
<clipPath id="clip0_31_10032">
<rect width="20" height="20" fill="white"/>
</clipPath>
</defs>
</svg>
