<svg width="15" height="15" viewBox="0 0 15 15" fill="none" xmlns="http://www.w3.org/2000/svg">
<g clip-path="url(#clip0_119_12917)">
<path d="M6.875 7.5C7.04076 7.5 7.19973 7.56585 7.31694 7.68306C7.43415 7.80027 7.5 7.95924 7.5 8.125C7.5 8.29076 7.43415 8.44973 7.31694 8.56694C7.19973 8.68415 7.04076 8.75 6.875 8.75H5C4.83424 8.75 4.67527 8.68415 4.55806 8.56694C4.44085 8.44973 4.375 8.29076 4.375 8.125C4.375 7.95924 4.44085 7.80027 4.55806 7.68306C4.67527 7.56585 4.83424 7.5 5 7.5H6.875ZM10.625 5.625C10.625 5.45924 10.5592 5.30027 10.4419 5.18306C10.3247 5.06585 10.1658 5 10 5H5C4.83424 5 4.67527 5.06585 4.55806 5.18306C4.44085 5.30027 4.375 5.45924 4.375 5.625C4.375 5.79076 4.44085 5.94973 4.55806 6.06694C4.67527 6.18415 4.83424 6.25 5 6.25H10C10.1658 6.25 10.3247 6.18415 10.4419 6.06694C10.5592 5.94973 10.625 5.79076 10.625 5.625ZM5 3.75H10C10.1658 3.75 10.3247 3.68415 10.4419 3.56694C10.5592 3.44973 10.625 3.29076 10.625 3.125C10.625 2.95924 10.5592 2.80027 10.4419 2.68306C10.3247 2.56585 10.1658 2.5 10 2.5H5C4.83424 2.5 4.67527 2.56585 4.55806 2.68306C4.44085 2.80027 4.375 2.95924 4.375 3.125C4.375 3.29076 4.44085 3.44973 4.55806 3.56694C4.67527 3.68415 4.83424 3.75 5 3.75ZM12.5 12.1525V14.5481C12.5 14.6373 12.4736 14.7244 12.4241 14.7986C12.3746 14.8727 12.3042 14.9305 12.2219 14.9647C12.1395 14.9988 12.0488 15.0077 11.9614 14.9903C11.874 14.9729 11.7936 14.9299 11.7306 14.8669L11.25 14.3869L10.7694 14.8669C10.7064 14.9299 10.626 14.9729 10.5386 14.9903C10.4512 15.0077 10.3605 14.9988 10.2781 14.9647C10.1958 14.9305 10.1254 14.8727 10.0759 14.7986C10.0264 14.7244 9.99996 14.6373 10 14.5481V12.1525C9.52334 11.8786 9.15062 11.4548 8.93989 10.9471C8.72915 10.4394 8.69223 9.87619 8.83487 9.34529C8.97751 8.81439 9.2917 8.34555 9.72852 8.0118C10.1653 7.67804 10.7003 7.4981 11.25 7.5C11.4613 7.50264 11.6713 7.53247 11.875 7.58875V3.125C11.875 2.62772 11.6775 2.15081 11.3258 1.79917C10.9742 1.44754 10.4973 1.25 10 1.25H5C4.50272 1.25 4.02581 1.44754 3.67417 1.79917C3.32254 2.15081 3.125 2.62772 3.125 3.125V10.625C3.125 11.1223 3.32254 11.5992 3.67417 11.9508C4.02581 12.3025 4.50272 12.5 5 12.5H8.125C8.29076 12.5 8.44973 12.5658 8.56694 12.6831C8.68415 12.8003 8.75 12.9592 8.75 13.125C8.75 13.2908 8.68415 13.4497 8.56694 13.5669C8.44973 13.6842 8.29076 13.75 8.125 13.75H5C4.1715 13.749 3.37722 13.4194 2.79139 12.8336C2.20555 12.2478 1.87599 11.4535 1.875 10.625V3.125C1.87599 2.2965 2.20555 1.50222 2.79139 0.916387C3.37722 0.330551 4.1715 0.000992411 5 0L10 0C10.8285 0.000992411 11.6228 0.330551 12.2086 0.916387C12.7944 1.50222 13.124 2.2965 13.125 3.125V8.36375C13.3698 8.63868 13.5501 8.96489 13.6525 9.31849C13.755 9.67209 13.777 10.0441 13.7171 10.4074C13.6572 10.7706 13.5168 11.1158 13.3062 11.4178C13.0956 11.7197 12.8202 11.9708 12.5 12.1525ZM12.5 10C12.5 9.75277 12.4267 9.5111 12.2893 9.30554C12.152 9.09998 11.9568 8.93976 11.7284 8.84515C11.4999 8.75054 11.2486 8.72579 11.0061 8.77402C10.7637 8.82225 10.5409 8.9413 10.3661 9.11612C10.1913 9.29093 10.0722 9.51366 10.024 9.75614C9.97579 9.99861 10.0005 10.2499 10.0951 10.4784C10.1898 10.7068 10.35 10.902 10.5555 11.0393C10.7611 11.1767 11.0028 11.25 11.25 11.25C11.5815 11.25 11.8995 11.1183 12.1339 10.8839C12.3683 10.6495 12.5 10.3315 12.5 10Z" fill="#555555"/>
</g>
<defs>
<clipPath id="clip0_119_12917">
<rect width="15" height="15" fill="white"/>
</clipPath>
</defs>
</svg>
