<svg width="14" height="14" viewBox="0 0 14 14" fill="none" xmlns="http://www.w3.org/2000/svg">
<path d="M13.4092 3.18056C13.3928 3.07731 13.2272 2.14981 12.5552 1.47256C11.8803 0.812225 10.9493 0.648892 10.8454 0.632559C10.7072 0.609809 10.566 0.638975 10.4476 0.712475C10.4062 0.738142 9.79776 1.11906 8.59668 2.13464C9.21443 2.35281 10.013 2.73139 10.6605 3.36489C11.3103 4.00073 11.6988 4.78298 11.9217 5.38964C12.925 4.21714 13.3024 3.62331 13.3275 3.58247C13.4022 3.46289 13.4313 3.31998 13.4092 3.18056Z" fill="white"/>
<path d="M7.55435 3.04688C6.92843 3.61154 6.19985 4.29754 5.36568 5.12587C1.82893 8.63754 0.901435 10.0416 0.863518 10.0994C0.810435 10.181 0.778351 10.275 0.770768 10.3718L0.584685 12.7465C0.571851 12.9169 0.633101 13.0837 0.753851 13.2045C0.863518 13.3141 1.01227 13.3754 1.16685 13.3754C1.18143 13.3754 1.1966 13.3754 1.21177 13.3736L3.60402 13.1893C3.70027 13.1817 3.79302 13.1508 3.8741 13.0989C3.93243 13.0615 5.34585 12.1405 8.88202 8.62937C9.73485 7.78237 10.4384 7.04504 11.0141 6.41446C10.926 6.03587 10.6186 4.95554 9.84452 4.19896C9.05935 3.43071 7.93002 3.12971 7.55435 3.04688Z" fill="white"/>
</svg>
