<svg width="13" height="16" viewBox="0 0 13 16" fill="none" xmlns="http://www.w3.org/2000/svg">
<path d="M12 0.75V9.1875C12 10.6793 11.4074 12.1101 10.3525 13.165C9.29758 14.2199 7.86684 14.8125 6.375 14.8125C4.88316 14.8125 3.45242 14.2199 2.39752 13.165C1.34263 12.1101 0.75 10.6793 0.75 9.1875L0.75 4.96875C0.75 3.84987 1.19447 2.77681 1.98564 1.98564C2.77681 1.19447 3.84987 0.75 4.96875 0.75C6.08763 0.75 7.16069 1.19447 7.95186 1.98564C8.74303 2.77681 9.1875 3.84987 9.1875 4.96875V9.1875C9.1875 9.93342 8.89118 10.6488 8.36374 11.1762C7.83629 11.7037 7.12092 12 6.375 12C5.62908 12 4.91371 11.7037 4.38626 11.1762C3.85882 10.6488 3.5625 9.93342 3.5625 9.1875V4.96875C3.5625 4.59579 3.71066 4.2381 3.97438 3.97438C4.2381 3.71066 4.59579 3.5625 4.96875 3.5625C5.34171 3.5625 5.6994 3.71066 5.96312 3.97438C6.22684 4.2381 6.375 4.59579 6.375 4.96875V8.95312" stroke="#888888" stroke-width="1.5" stroke-linecap="round"/>
</svg>
