<svg width="26" height="26" viewBox="0 0 26 26" fill="none" xmlns="http://www.w3.org/2000/svg">
<path fill-rule="evenodd" clip-rule="evenodd" d="M22.0455 11.3988L20.186 16.9773C18.875 20.9105 18.2195 22.8771 17.2582 23.4359C16.3437 23.9675 15.2142 23.9675 14.2997 23.4359C13.3385 22.8771 12.6829 20.9105 11.3719 16.9773C11.1614 16.3458 11.0561 16.03 10.8794 15.766C10.7082 15.5103 10.4884 15.2905 10.2327 15.1193C9.96872 14.9426 9.65295 14.8374 9.02142 14.6268C5.08823 13.3158 3.12164 12.6602 2.56279 11.699C2.03115 10.7845 2.03115 9.65502 2.56279 8.74053C3.12164 7.77924 5.08823 7.12371 9.02142 5.81265L14.5999 3.95317C19.4731 2.32875 21.9097 1.51654 23.1959 2.80275C24.4822 4.08896 23.6699 6.52559 22.0455 11.3988ZM14.1302 11.812C13.8147 11.4929 13.8175 10.9785 14.1366 10.663L18.698 6.15184C19.017 5.8363 19.5315 5.83915 19.847 6.15821C20.1626 6.47726 20.1597 6.9917 19.8407 7.30724L15.2793 11.8184C14.9602 12.1339 14.4458 12.131 14.1302 11.812Z" fill="white"/>
</svg>
