<svg width="15" height="15" viewBox="0 0 15 15" fill="none" xmlns="http://www.w3.org/2000/svg">
<g clip-path="url(#clip0_109_8695)">
<path d="M15 7.5C15 11.6355 11.6355 15 7.5 15C3.36445 15 0 11.6355 0 7.5C0 3.36445 3.36445 0 7.5 0C11.6355 0 15 3.36445 15 7.5ZM13.7499 7.5C13.7499 4.05381 10.9462 1.2501 7.5 1.2501C4.05381 1.2501 1.2501 4.05381 1.2501 7.5C1.2501 10.9462 4.05381 13.7499 7.5 13.7499C10.9462 13.7499 13.7499 10.9462 13.7499 7.5ZM9.57363 6.55693L7.40918 4.96992C6.90352 4.59961 6.19365 4.70947 5.82334 5.21514C5.68125 5.40937 5.6042 5.64375 5.6042 5.88457V9.06035C5.60332 9.68613 6.10986 10.1944 6.73564 10.1953C6.97793 10.1956 7.21406 10.1183 7.40918 9.97471L9.57363 8.3877C10.0787 8.01709 10.1877 7.30693 9.81709 6.80156C9.74883 6.7084 9.6668 6.62637 9.57363 6.55811V6.55693Z" fill="#7954C6"/>
</g>
<defs>
<clipPath id="clip0_109_8695">
<rect width="15" height="15" fill="white"/>
</clipPath>
</defs>
</svg>
