<svg width="15" height="15" viewBox="0 0 15 15" fill="none" xmlns="http://www.w3.org/2000/svg">
<g clip-path="url(#clip0_19_18579)">
<path d="M10.1863 5.18L11.0637 6.07063L7.44313 9.6375C7.20125 9.87938 6.88312 10 6.56375 10C6.24437 10 5.92313 9.87812 5.67875 9.63437L3.94 7.94937L4.81063 7.05125L6.55625 8.74313L10.1863 5.18ZM15 7.5C15 11.6356 11.6356 15 7.5 15C3.36437 15 0 11.6356 0 7.5C0 3.36437 3.36437 0 7.5 0C11.6356 0 15 3.36437 15 7.5ZM13.75 7.5C13.75 4.05375 10.9462 1.25 7.5 1.25C4.05375 1.25 1.25 4.05375 1.25 7.5C1.25 10.9462 4.05375 13.75 7.5 13.75C10.9462 13.75 13.75 10.9462 13.75 7.5Z" fill="#BBBBBB"/>
</g>
<defs>
<clipPath id="clip0_19_18579">
<rect width="15" height="15" fill="white"/>
</clipPath>
</defs>
</svg>
