<svg width="50" height="50" viewBox="0 0 50 50" fill="none" xmlns="http://www.w3.org/2000/svg">
<path d="M43.037 16.1506H35.4141C34.9997 16.1506 34.6022 15.986 34.3092 15.6929C34.0162 15.3999 33.8516 15.0025 33.8516 14.5881C33.8516 14.1737 34.0162 13.7762 34.3092 13.4832C34.6022 13.1902 34.9997 13.0256 35.4141 13.0256H41.5724L42.0141 6.15058C42.0254 5.94455 42.0778 5.74287 42.1681 5.55739C42.2585 5.3719 42.3851 5.20636 42.5403 5.07049C42.6956 4.93462 42.8765 4.83117 43.0723 4.76621C43.2682 4.70125 43.475 4.6761 43.6807 4.69224C43.886 4.70574 44.0866 4.75959 44.271 4.85069C44.4554 4.94179 44.6201 5.06836 44.7555 5.22317C44.891 5.37797 44.9946 5.55796 45.0604 5.75285C45.1262 5.94773 45.1529 6.15368 45.1391 6.35891L44.6016 14.6922C44.5751 15.0887 44.3986 15.4602 44.1079 15.7311C43.8172 16.002 43.4343 16.152 43.037 16.1506Z" fill="white"/>
<path d="M25.0006 47.3971C21.0695 47.3963 17.2078 46.3608 13.8038 44.3946C10.3997 42.4285 7.57313 39.6009 5.60811 36.1962C3.64309 32.7915 2.60887 28.9295 2.60938 24.9984C2.60988 21.0673 3.64511 17.2056 5.61101 13.8014C7.57691 10.3972 10.4042 7.57035 13.8088 5.60507C17.2134 3.63979 21.0753 2.60527 25.0064 2.60547C28.9375 2.60567 32.7992 3.6406 36.2036 5.60623C39.608 7.57187 42.435 10.399 44.4006 13.8034C44.6078 14.1625 44.6638 14.5893 44.5564 14.9897C44.4489 15.3902 44.1868 15.7316 43.8277 15.9388C43.4685 16.146 43.0418 16.202 42.6413 16.0946C42.2408 15.9872 41.8994 15.725 41.6922 15.3659C39.3552 11.3147 35.6251 8.25127 31.1968 6.74643C26.7686 5.24159 21.9443 5.39797 17.6228 7.18644C13.3013 8.9749 9.77737 12.2735 7.70763 16.4675C5.63788 20.6616 5.16348 25.465 6.37281 29.9829C7.58214 34.5008 10.3927 38.425 14.2809 41.0243C18.169 43.6235 22.8695 44.7206 27.5066 44.1111C32.1437 43.5016 36.401 41.227 39.4854 37.7112C42.5697 34.1955 44.2707 29.6783 44.2714 25.0013C44.2714 24.5869 44.436 24.1895 44.729 23.8965C45.0221 23.6034 45.4195 23.4388 45.8339 23.4388C46.2483 23.4388 46.6457 23.6034 46.9388 23.8965C47.2318 24.1895 47.3964 24.5869 47.3964 25.0013C47.3898 30.939 45.0281 36.6316 40.8295 40.8302C36.6309 45.0288 30.9383 47.3905 25.0006 47.3971Z" fill="white"/>
</svg>
