<svg width="50" height="50" viewBox="0 0 50 50" fill="none" xmlns="http://www.w3.org/2000/svg">
<path d="M6.96302 16.1506H14.5859C15.0003 16.1506 15.3978 15.986 15.6908 15.6929C15.9838 15.3999 16.1484 15.0025 16.1484 14.5881C16.1484 14.1737 15.9838 13.7762 15.6908 13.4832C15.3978 13.1902 15.0003 13.0256 14.5859 13.0256H8.42761L7.98594 6.15058C7.97463 5.94455 7.92224 5.74287 7.83187 5.55739C7.74149 5.3719 7.61494 5.20636 7.45966 5.07049C7.30438 4.93462 7.1235 4.83117 6.92766 4.76621C6.73182 4.70125 6.52497 4.6761 6.31927 4.69224C6.11402 4.70574 5.91344 4.75959 5.72902 4.85069C5.54459 4.94179 5.37995 5.06836 5.2445 5.22317C5.10904 5.37797 5.00544 5.55796 4.93963 5.75285C4.87381 5.94773 4.84707 6.15368 4.86094 6.35891L5.39844 14.6922C5.42492 15.0887 5.60145 15.4602 5.8921 15.7311C6.18275 16.002 6.56569 16.152 6.96302 16.1506Z" fill="white"/>
<path d="M24.9994 47.3971C28.9305 47.3963 32.7922 46.3608 36.1962 44.3946C39.6003 42.4285 42.4269 39.6009 44.3919 36.1962C46.3569 32.7915 47.3911 28.9295 47.3906 24.9984C47.3901 21.0673 46.3549 17.2056 44.389 13.8014C42.4231 10.3972 39.5958 7.57035 36.1912 5.60507C32.7866 3.63979 28.9247 2.60527 24.9936 2.60547C21.0625 2.60567 17.2008 3.6406 13.7964 5.60623C10.392 7.57187 7.56498 10.399 5.59943 13.8034C5.39223 14.1625 5.33619 14.5893 5.44363 14.9897C5.55108 15.3902 5.8132 15.7316 6.17235 15.9388C6.5315 16.146 6.95824 16.202 7.35871 16.0946C7.75918 15.9872 8.10057 15.725 8.30777 15.3659C10.6448 11.3147 14.3749 8.25127 18.8032 6.74643C23.2314 5.24159 28.0557 5.39797 32.3772 7.18644C36.6987 8.9749 40.2226 12.2735 42.2924 16.4675C44.3621 20.6616 44.8365 25.465 43.6272 29.9829C42.4179 34.5008 39.6073 38.425 35.7191 41.0243C31.831 43.6235 27.1305 44.7206 22.4934 44.1111C17.8563 43.5016 13.599 41.227 10.5146 37.7112C7.4303 34.1955 5.7293 29.6783 5.7286 25.0013C5.7286 24.5869 5.56398 24.1895 5.27096 23.8965C4.97793 23.6034 4.5805 23.4388 4.1661 23.4388C3.7517 23.4388 3.35427 23.6034 3.06124 23.8965C2.76822 24.1895 2.6036 24.5869 2.6036 25.0013C2.61022 30.939 4.9719 36.6316 9.1705 40.8302C13.3691 45.0288 19.0617 47.3905 24.9994 47.3971Z" fill="white"/>
</svg>
