<svg width="100" height="100" viewBox="0 0 100 100" fill="none" xmlns="http://www.w3.org/2000/svg">
<g clip-path="url(#clip0_2732_45447)">
<path d="M100 50C100 77.5703 77.5703 100 50 100C22.4297 100 0 77.5703 0 50C0 22.4297 22.4297 0 50 0C77.5703 0 100 22.4297 100 50ZM91.666 50C91.666 27.0254 72.9746 8.33398 50 8.33398C27.0254 8.33398 8.33398 27.0254 8.33398 50C8.33398 72.9746 27.0254 91.666 50 91.666C72.9746 91.666 91.666 72.9746 91.666 50ZM63.8242 43.7129L49.3945 33.1328C46.0234 30.6641 41.291 31.3965 38.8223 34.7676C37.875 36.0625 37.3613 37.625 37.3613 39.2305V60.4023C37.3555 64.5742 40.7324 67.9629 44.9043 67.9688C46.5195 67.9707 48.0938 67.4551 49.3945 66.498L63.8242 55.918C67.1914 53.4473 67.918 48.7129 65.4473 45.3438C64.9922 44.7227 64.4453 44.1758 63.8242 43.7207V43.7129Z" fill="white"/>
</g>
<defs>
<clipPath id="clip0_2732_45447">
<rect width="100" height="100" fill="white"/>
</clipPath>
</defs>
</svg>
